<svg width="670" height="593" viewBox="0 0 670 593" fill="none" xmlns="http://www.w3.org/2000/svg">
<path d="M515.999 81.8372H565.785C566.661 81.8372 567.372 82.6193 567.372 83.5835V123.783C567.372 125.488 566.116 126.871 564.566 126.871H545.358C545.135 126.871 544.923 126.971 544.771 127.148L528.805 145.753C528.29 146.351 527.412 145.927 527.412 145.08V127.82C527.412 127.295 527.047 126.869 526.597 126.869H515.999C514.56 126.869 513.394 125.509 513.394 123.833V84.8726C513.394 83.197 514.56 81.8372 515.999 81.8372Z" fill="#555555"/>
<path d="M541.451 119.541C541.311 119.541 541.171 119.515 541.033 119.462L539.953 119.05C539.226 118.772 538.627 118.168 538.31 117.394L533.27 105.027L522.04 98.5379C521.716 98.3506 521.487 98.0178 521.413 97.6222C521.338 97.2279 521.429 96.8217 521.659 96.5086C522.459 95.42 523.523 94.6261 524.738 94.2173C526.235 93.713 527.837 93.8296 529.256 94.5448L537.564 98.7357L546.81 95.416C548.155 94.9339 549.622 95.3073 550.637 96.396L551.456 97.275C551.623 97.4532 551.705 97.6995 551.683 97.9536C551.663 98.2065 551.543 98.4331 551.351 98.5746L545.646 102.844L550.72 105.655L555.345 103.882C555.797 103.71 556.296 103.789 556.679 104.097L557.451 104.708C557.745 104.942 557.926 105.303 557.947 105.701C557.97 106.1 557.828 106.482 557.563 106.752L554.752 109.487L556.749 111.637C556.929 111.834 556.985 112.129 556.889 112.388C556.793 112.647 556.565 112.816 556.31 112.816H552.061C551.589 112.816 551.125 112.731 550.68 112.562L541.509 109.098L542.696 117.95C542.761 118.435 542.594 118.909 542.252 119.223C542.02 119.431 541.737 119.541 541.451 119.541ZM526.607 94.8894C526.067 94.8894 525.526 94.9772 525 95.1553C523.955 95.5077 523.039 96.189 522.353 97.1257C522.268 97.2396 522.275 97.3615 522.286 97.4231C522.298 97.4846 522.335 97.5986 522.454 97.6667L533.82 104.234C533.909 104.285 533.979 104.368 534.02 104.469L539.123 116.991C539.34 117.519 539.748 117.931 540.245 118.122L541.324 118.535C541.498 118.602 541.631 118.509 541.679 118.464C541.727 118.421 541.836 118.298 541.808 118.093L540.514 108.442C540.491 108.273 540.551 108.103 540.671 107.993C540.791 107.884 540.953 107.852 541.101 107.906L550.966 111.632C551.317 111.764 551.685 111.832 552.056 111.832H555.65L553.781 109.82C553.693 109.725 553.644 109.594 553.648 109.457C553.651 109.32 553.706 109.191 553.799 109.102L556.963 106.024C557.048 105.936 557.058 105.821 557.054 105.762C557.051 105.701 557.03 105.589 556.926 105.507L556.155 104.896C556.005 104.778 555.813 104.745 555.634 104.813L550.832 106.655C550.719 106.7 550.594 106.689 550.485 106.63L544.562 103.35C544.422 103.271 544.329 103.117 544.318 102.942C544.308 102.769 544.382 102.602 544.512 102.505L550.717 97.8619L550.01 97.1034C549.233 96.2702 548.112 95.9833 547.082 96.354L537.671 99.7327C537.563 99.7707 537.45 99.7641 537.347 99.7117L528.882 95.4409C528.163 95.0728 527.387 94.8894 526.607 94.8894Z" fill="white"/>
<path d="M525.632 97.596C525.543 97.596 525.452 97.575 525.367 97.5331L522.705 96.2125C522.63 96.1759 522.597 96.0789 522.63 95.9964C522.665 95.9125 522.754 95.8758 522.828 95.9138L525.489 97.2344C525.593 97.2881 525.714 97.2802 525.812 97.2134L526.677 96.5925L523.914 95.0296C523.843 94.9876 523.813 94.8894 523.85 94.8095C523.888 94.7295 523.979 94.6994 524.051 94.7387L527.042 96.4313C527.088 96.4588 527.118 96.5099 527.121 96.5689C527.124 96.6265 527.098 96.6828 527.054 96.7143L525.97 97.4925C525.866 97.5606 525.75 97.596 525.632 97.596Z" fill="white"/>
<path d="M561.396 98.3924H580.255C583.162 98.3924 585.518 95.7998 585.518 92.6006V71.8466C585.518 68.6474 583.162 66.0548 580.255 66.0548H561.396C558.489 66.0548 556.133 68.6474 556.133 71.8466V92.6006C556.133 95.7985 558.489 98.3924 561.396 98.3924Z" fill="#F8E643"/>
<path d="M563.928 82.2236C563.928 78.0379 567.022 74.6331 570.825 74.6331C574.629 74.6331 577.723 78.0379 577.723 82.2236C577.723 86.4092 574.629 89.8141 570.825 89.8141C567.022 89.8141 563.928 86.4079 563.928 82.2236ZM565.096 82.2236C565.096 85.7005 567.666 88.5276 570.825 88.5276C573.985 88.5276 576.555 85.6992 576.555 82.2236C576.555 78.7467 573.985 75.9182 570.825 75.9182C567.666 75.9182 565.096 78.7467 565.096 82.2236Z" fill="#222222"/>
<path d="M564.448 89.8953C564.296 89.8953 564.143 89.8311 564.027 89.704C563.795 89.4486 563.795 89.0333 564.027 88.7778L576.78 74.7431C577.012 74.4876 577.389 74.4876 577.621 74.7431C577.853 74.9986 577.853 75.4139 577.621 75.6693L564.868 89.704C564.753 89.8311 564.601 89.8953 564.448 89.8953Z" fill="#222222"/>
<path d="M577.201 89.8953C577.049 89.8953 576.896 89.8311 576.78 89.704L564.027 75.6693C563.795 75.4139 563.795 74.9986 564.027 74.7431C564.259 74.4876 564.636 74.4876 564.868 74.7431L577.621 88.7778C577.853 89.0333 577.853 89.4486 577.621 89.704C577.506 89.8311 577.353 89.8953 577.201 89.8953Z" fill="#222222"/>
<g opacity="0.51">
<path d="M612.667 194.262C612.667 196.959 614.654 199.146 617.105 199.146C619.556 199.146 621.543 196.959 621.543 194.262C621.543 191.564 619.556 189.378 617.105 189.378C614.654 189.378 612.667 191.564 612.667 194.262Z" fill="#F8E643"/>
<path d="M493.395 47.7375C493.395 49.0869 494.389 50.1795 495.614 50.1795C496.84 50.1795 497.832 49.0869 497.832 47.7375C497.832 46.3881 496.84 45.2955 495.614 45.2955C494.387 45.2955 493.395 46.3894 493.395 47.7375Z" fill="#F8E643"/>
<path d="M614.706 128.217C614.706 129.565 615.7 130.659 616.925 130.659C618.15 130.659 619.144 129.565 619.144 128.217C619.144 126.868 618.15 125.775 616.925 125.775C615.7 125.775 614.706 126.869 614.706 128.217Z" fill="#555555"/>
<path d="M606.842 72.4637C606.842 73.8117 607.835 74.9057 609.061 74.9057C610.287 74.9057 611.28 73.8117 611.28 72.4637C611.28 71.1143 610.286 70.0217 609.061 70.0217C607.835 70.0217 606.842 71.1156 606.842 72.4637Z" fill="#555555"/>
<path d="M557.307 195.699C557.307 196.373 557.803 196.92 558.416 196.92C559.029 196.92 559.526 196.373 559.526 195.699C559.526 195.024 559.029 194.478 558.416 194.478C557.803 194.478 557.307 195.024 557.307 195.699Z" fill="#555555"/>
<path d="M463.993 7.1386C465.678 7.1386 467.044 5.63531 467.044 3.78091C467.044 1.92651 465.678 0.423218 463.993 0.423218C462.308 0.423218 460.942 1.92651 460.942 3.78091C460.942 5.63531 462.308 7.1386 463.993 7.1386Z" fill="#F8E643"/>
</g>
<path d="M106.623 79.889H46.3312C45.2693 79.889 44.4087 80.8362 44.4087 82.0048V130.688C44.4087 132.754 45.93 134.428 47.8061 134.428H71.0692C71.3383 134.428 71.5954 134.55 71.7799 134.765L91.1147 157.295C91.7373 158.021 92.8015 157.506 92.8015 156.482V135.58C92.8015 134.944 93.2443 134.428 93.7895 134.428H106.622C108.365 134.428 109.779 132.782 109.779 130.75V83.5677C109.779 81.5358 108.366 79.889 106.623 79.889Z" fill="#555555"/>
<path d="M75.8023 125.444C75.475 125.444 75.1547 125.319 74.8917 125.081C74.5036 124.726 74.3155 124.186 74.3881 123.637L75.8488 112.747L64.5958 116.998C64.0672 117.198 63.5148 117.299 62.9542 117.299H57.8068C57.5366 117.299 57.2949 117.121 57.1925 116.845C57.0902 116.568 57.1497 116.256 57.3437 116.049L59.8317 113.369L56.3605 109.99C56.0509 109.679 55.8914 109.245 55.9164 108.794C55.9414 108.344 56.145 107.934 56.4795 107.67L57.4152 106.929C57.8568 106.579 58.4294 106.485 58.9448 106.685L64.5827 108.847L70.9062 105.342L63.8625 100.07C63.6553 99.9159 63.5244 99.6696 63.5018 99.3945C63.4791 99.1194 63.5696 98.8508 63.7494 98.6582L64.7422 97.5932C65.9469 96.3014 67.6885 95.8573 69.2812 96.4311L80.5152 100.464L90.6076 95.3713C92.3051 94.5132 94.224 94.3743 96.0121 94.9783C97.4667 95.4695 98.7405 96.418 99.6964 97.7202C99.9571 98.0766 100.058 98.5377 99.9726 98.9844C99.8892 99.4312 99.6297 99.8085 99.2619 100.021L85.634 107.894L79.5152 122.904C79.145 123.815 78.4403 124.527 77.582 124.854L76.2738 125.355C76.1202 125.416 75.9607 125.444 75.8023 125.444ZM76.3975 111.53C76.4999 111.53 76.6011 111.569 76.6821 111.642C76.8023 111.752 76.8606 111.923 76.8392 112.092L75.2726 123.78C75.2452 123.991 75.3131 124.189 75.4619 124.324C75.6107 124.46 75.8012 124.497 75.9833 124.427L77.2916 123.927C77.9177 123.686 78.4332 123.167 78.7034 122.501L84.8852 107.336C84.9257 107.235 84.9959 107.153 85.0852 107.102L98.85 99.1495C98.9786 99.0748 99.0714 98.9412 99.1012 98.7827C99.1298 98.6242 99.0941 98.4617 99.0024 98.336C98.1596 97.187 97.0358 96.3499 95.7514 95.9163C94.1752 95.3831 92.4813 95.5049 90.9814 96.2634L80.7307 101.436C80.6283 101.487 80.514 101.495 80.4057 101.457L69.0062 97.3639C67.7254 96.9054 66.3326 97.2604 65.3659 98.2954L64.3731 99.3604L72.0371 104.998C72.1668 105.096 72.2418 105.262 72.2311 105.437C72.2204 105.611 72.1275 105.765 71.9871 105.844L64.816 109.817C64.7077 109.878 64.5827 109.887 64.4684 109.842L58.652 107.613C58.4127 107.521 58.1425 107.563 57.9354 107.727L56.9997 108.468C56.8854 108.558 56.8164 108.699 56.808 108.853C56.7985 109.008 56.8533 109.156 56.958 109.262L60.7817 112.984C60.8745 113.074 60.9293 113.203 60.9328 113.339C60.9364 113.475 60.8876 113.607 60.7995 113.703L58.3722 116.319H62.9554C63.4172 116.319 63.872 116.235 64.3065 116.072L76.2535 111.558C76.2999 111.539 76.3487 111.53 76.3975 111.53Z" fill="white"/>
<path d="M94.9548 98.9373C94.8215 98.9373 94.687 98.898 94.5691 98.8207L93.2537 97.8736C93.2097 97.8421 93.1835 97.7871 93.1859 97.7282C93.1895 97.6692 93.2192 97.6168 93.2656 97.5906L96.8857 95.5404C96.9583 95.5011 97.0488 95.5299 97.0869 95.6111C97.1238 95.6923 97.0952 95.7906 97.0226 95.8312L93.6287 97.7517L94.7263 98.5417C94.8477 98.6216 95.006 98.6321 95.1429 98.564L98.3654 96.9644C98.4404 96.9251 98.5285 96.9631 98.563 97.0469C98.5963 97.1295 98.563 97.2264 98.488 97.2631L95.2644 98.8627C95.1667 98.9138 95.0608 98.9373 94.9548 98.9373Z" fill="white"/>
<path d="M51.6452 99.9369H28.8071C25.287 99.9369 22.4324 96.7967 22.4324 92.9229V67.788C22.4324 63.9141 25.2858 60.7726 28.8071 60.7726H51.6452C55.1653 60.7726 58.0199 63.9128 58.0199 67.7867V92.9216C58.0199 96.7967 55.1665 99.9369 51.6452 99.9369Z" fill="#F8E643"/>
<path d="M40.2267 89.5468C35.621 89.5468 31.8736 85.4228 31.8736 80.3554C31.8736 75.2868 35.621 71.1627 40.2267 71.1627C44.8324 71.1627 48.5799 75.2855 48.5799 80.3554C48.5799 85.4241 44.8313 89.5468 40.2267 89.5468ZM40.2267 72.7204C36.4007 72.7204 33.2878 76.1462 33.2878 80.3567C33.2878 84.5673 36.3995 87.9918 40.2267 87.9918C44.0527 87.9918 47.1657 84.5673 47.1657 80.3567C47.1645 76.1449 44.0527 72.7204 40.2267 72.7204Z" fill="#222222"/>
<path d="M47.9489 89.5088C47.7965 89.5088 47.6441 89.4447 47.5275 89.3176L32.083 72.3208C31.8509 72.0654 31.8509 71.6501 32.083 71.3946C32.3151 71.1391 32.6925 71.1391 32.9246 71.3946L48.3691 88.3914C48.6012 88.6468 48.6012 89.0621 48.3691 89.3176C48.2524 89.4447 48.1001 89.5088 47.9489 89.5088Z" fill="#222222"/>
<path d="M32.5044 89.5088C32.352 89.5088 32.1997 89.4447 32.083 89.3176C31.8509 89.0621 31.8509 88.6468 32.083 88.3914L47.5275 71.3946C47.7596 71.1391 48.137 71.1391 48.3691 71.3946C48.6012 71.6501 48.6012 72.0654 48.3691 72.3208L32.9246 89.3176C32.8092 89.4447 32.6568 89.5088 32.5044 89.5088Z" fill="#222222"/>
<g opacity="0.51">
<path d="M40.1577 198.23C40.1577 200.927 38.1709 203.114 35.7198 203.114C33.2687 203.114 31.2819 200.927 31.2819 198.23C31.2819 195.532 33.2687 193.346 35.7198 193.346C38.1709 193.346 40.1577 195.532 40.1577 198.23Z" fill="#F8E643"/>
<path d="M160.817 56.2856C160.817 57.6336 159.824 58.7275 158.598 58.7275C157.373 58.7275 156.379 57.6336 156.379 56.2856C156.379 54.9362 157.373 53.8436 158.598 53.8436C159.824 53.8436 160.817 54.9362 160.817 56.2856Z" fill="#F8E643"/>
<path d="M10.478 147.253C10.478 148.601 9.48399 149.694 8.25905 149.694C7.03411 149.694 6.04012 148.601 6.04012 147.253C6.04012 145.903 7.03411 144.811 8.25905 144.811C9.48399 144.811 10.478 145.903 10.478 147.253Z" fill="#555555"/>
<path d="M66.5086 25.1492C66.5086 26.4973 65.5146 27.5912 64.2897 27.5912C63.0635 27.5912 62.0707 26.4973 62.0707 25.1492C62.0707 23.7999 63.0647 22.7073 64.2897 22.7073C65.5146 22.7073 66.5086 23.7999 66.5086 25.1492Z" fill="#555555"/>
<path d="M82.5959 198.535C82.5959 199.21 82.0995 199.756 81.4864 199.756C80.8734 199.756 80.377 199.21 80.377 198.535C80.377 197.86 80.8734 197.314 81.4864 197.314C82.0995 197.314 82.5959 197.86 82.5959 198.535Z" fill="#555555"/>
<path d="M142.51 16.6011C144.195 16.6011 145.561 15.0978 145.561 13.2434C145.561 11.389 144.195 9.88574 142.51 9.88574C140.825 9.88574 139.459 11.389 139.459 13.2434C139.459 15.0978 140.825 16.6011 142.51 16.6011Z" fill="#F8E643"/>
</g>
<path d="M406.313 503.577H212.532C198.357 503.577 186.866 490.931 186.866 475.331V40.2689C186.866 24.6686 198.357 12.0226 212.532 12.0226H406.313C420.489 12.0226 431.98 24.6686 431.98 40.2689V475.331C431.98 490.93 420.487 503.577 406.313 503.577Z" fill="white"/>
<path d="M402.025 496.479H216.82C203.92 496.479 193.462 484.97 193.462 470.774V42.7016C193.462 28.5057 203.92 16.9968 216.82 16.9968H402.025C414.924 16.9968 425.382 28.5057 425.382 42.7016V470.773C425.382 484.97 414.924 496.479 402.025 496.479Z" fill="#423E49"/>
<path opacity="0.89" d="M309.716 40.2675C309.716 40.2675 309.713 40.2675 309.71 40.2675C308.647 40.2675 307.647 39.8116 306.895 38.9849C306.142 38.1543 305.729 37.0526 305.729 35.884C305.727 34.7167 306.142 33.6163 306.895 32.7857C307.647 31.9577 308.646 31.5018 309.707 31.5018C309.709 31.5018 309.71 31.5018 309.713 31.5018C310.775 31.5018 311.773 31.9577 312.528 32.7844C313.282 33.615 313.695 34.7167 313.694 35.8866C313.694 37.0565 313.278 38.157 312.527 38.9849C312.096 39.4605 311.588 39.8116 311.016 40.0277C310.6 40.1862 310.163 40.2675 309.716 40.2675ZM309.708 32.8106C308.963 32.8106 308.263 33.1302 307.737 33.7106C307.209 34.2923 306.918 35.0639 306.919 35.8827C306.918 36.7028 307.208 37.4757 307.737 38.0587C308.264 38.6378 308.965 38.9574 309.712 38.9574C309.712 38.9574 309.714 38.9574 309.716 38.9574C310.03 38.9574 310.337 38.8998 310.628 38.7884H310.629C311.027 38.6364 311.383 38.3915 311.687 38.0574C312.214 37.477 312.506 36.7054 312.506 35.8853C312.507 35.0652 312.216 34.2936 311.688 33.7106C311.16 33.1316 310.458 32.8119 309.713 32.8119C309.71 32.8106 309.708 32.8106 309.708 32.8106Z" fill="white"/>
<path opacity="0.89" d="M328.412 52.8454H328.409L289.523 52.8428L289.359 52.6961C288.39 51.8314 287.828 50.71 287.775 49.5401C287.728 48.5366 288.057 47.596 288.701 46.8899C289.295 46.2348 290.086 45.8719 290.928 45.8719C290.932 45.8719 290.936 45.8719 290.94 45.8719L328.483 45.8733C328.484 45.8733 328.486 45.8733 328.486 45.8733C329.332 45.8733 330.126 46.2361 330.722 46.8938C331.32 47.5475 331.65 48.4213 331.651 49.3554C331.649 50.8423 330.79 52.1668 329.517 52.6528H329.515C329.184 52.7786 328.838 52.8428 328.486 52.8441L328.412 52.8454ZM289.955 51.5327L328.529 51.5354C328.734 51.5301 328.936 51.4895 329.128 51.4175C329.925 51.1135 330.461 50.2856 330.462 49.358C330.461 48.7777 330.255 48.2314 329.883 47.8239C329.509 47.4126 329.015 47.1859 328.487 47.1859C328.486 47.1859 328.486 47.1859 328.484 47.1859L290.939 47.1846C290.936 47.1846 290.934 47.1846 290.932 47.1846C290.407 47.1846 289.914 47.41 289.544 47.8187C289.14 48.2602 288.935 48.8471 288.965 49.4759C288.998 50.2069 289.348 50.9314 289.955 51.5327Z" fill="white"/>
<path d="M309.575 472.374C297.151 472.374 287.042 461.25 287.042 447.576C287.042 433.901 297.15 422.777 309.575 422.777C322 422.777 332.108 433.901 332.108 447.576C332.108 461.25 321.999 472.374 309.575 472.374ZM309.575 424.089C297.806 424.089 288.233 434.626 288.233 447.577C288.233 460.528 297.806 471.065 309.575 471.065C321.343 471.065 330.918 460.528 330.918 447.577C330.918 434.626 321.343 424.089 309.575 424.089Z" fill="white"/>
<path d="M309.575 465.812C318.893 465.812 326.447 457.499 326.447 447.244C326.447 436.989 318.893 428.677 309.575 428.677C300.257 428.677 292.703 436.989 292.703 447.244C292.703 457.499 300.257 465.812 309.575 465.812Z" fill="white"/>
<path d="M410.525 69.8723H208.32V413.134H410.525V69.8723Z" fill="white"/>
<path d="M410.525 68.5688H208.32V83.9464H410.525V68.5688Z" fill="#555555"/>
<path d="M333.001 281.47H283.181C281.463 281.47 280.064 279.932 280.064 278.041V236.936C280.064 235.045 281.463 233.506 283.181 233.506H333.001C334.719 233.506 336.116 235.044 336.116 236.936V278.041C336.116 279.932 334.719 281.47 333.001 281.47ZM283.181 234.816C282.118 234.816 281.255 235.767 281.255 236.936V278.041C281.255 279.21 282.119 280.16 283.181 280.16H333.001C334.063 280.16 334.926 279.209 334.926 278.041V236.936C334.926 235.767 334.062 234.816 333.001 234.816H283.181Z" fill="#F8E643"/>
<path d="M312.946 251.582H303.236C302.907 251.582 302.641 251.289 302.641 250.927C302.641 250.566 302.907 250.272 303.236 250.272H312.946C313.275 250.272 313.541 250.566 313.541 250.927C313.541 251.29 313.275 251.582 312.946 251.582Z" fill="#F8E643"/>
<path d="M320.261 262.156H295.918C295.59 262.156 295.323 261.862 295.323 261.501C295.323 261.139 295.59 260.846 295.918 260.846H320.261C320.59 260.846 320.856 261.139 320.856 261.501C320.856 261.862 320.591 262.156 320.261 262.156Z" fill="#F8E643"/>
<path d="M271.943 281.47H222.124C220.406 281.47 219.008 279.932 219.008 278.041V236.936C219.008 235.045 220.406 233.506 222.124 233.506H271.943C273.66 233.506 275.059 235.044 275.059 236.936V278.041C275.059 279.932 273.66 281.47 271.943 281.47ZM222.122 234.816C221.061 234.816 220.197 235.767 220.197 236.936V278.041C220.197 279.21 221.062 280.16 222.122 280.16H271.941C273.004 280.16 273.867 279.209 273.867 278.041V236.936C273.867 235.767 273.003 234.816 271.941 234.816H222.122Z" fill="#F8E643"/>
<path d="M251.887 251.582H242.177C241.848 251.582 241.582 251.289 241.582 250.927C241.582 250.566 241.848 250.272 242.177 250.272H251.887C252.216 250.272 252.482 250.566 252.482 250.927C252.482 251.29 252.216 251.582 251.887 251.582Z" fill="#F8E643"/>
<path d="M259.205 262.156H234.862C234.533 262.156 234.267 261.862 234.267 261.501C234.267 261.139 234.533 260.846 234.862 260.846H259.205C259.533 260.846 259.8 261.139 259.8 261.501C259.8 261.862 259.533 262.156 259.205 262.156Z" fill="#F8E643"/>
<path d="M394.105 281.47H344.285C342.567 281.47 341.17 279.932 341.17 278.041V236.936C341.17 235.045 342.567 233.506 344.285 233.506H394.105C395.823 233.506 397.222 235.044 397.222 236.936V278.041C397.222 279.932 395.823 281.47 394.105 281.47ZM344.285 234.816C343.223 234.816 342.36 235.767 342.36 236.936V278.041C342.36 279.21 343.224 280.16 344.285 280.16H394.105C395.168 280.16 396.031 279.209 396.031 278.041V236.936C396.031 235.767 395.167 234.816 394.105 234.816H344.285Z" fill="#F8E643"/>
<path d="M374.05 251.582H364.34C364.011 251.582 363.745 251.289 363.745 250.927C363.745 250.566 364.011 250.272 364.34 250.272H374.05C374.379 250.272 374.645 250.566 374.645 250.927C374.645 251.29 374.379 251.582 374.05 251.582Z" fill="#F8E643"/>
<path d="M381.366 262.156H357.023C356.695 262.156 356.428 261.862 356.428 261.501C356.428 261.139 356.695 260.846 357.023 260.846H381.366C381.695 260.846 381.961 261.139 381.961 261.501C381.961 261.862 381.696 262.156 381.366 262.156Z" fill="#F8E643"/>
<path d="M394.105 281.47H344.285C342.567 281.47 341.17 279.932 341.17 278.041V236.936C341.17 235.045 342.567 233.506 344.285 233.506H394.105C395.823 233.506 397.222 235.044 397.222 236.936V278.041C397.222 279.932 395.823 281.47 394.105 281.47ZM344.285 234.816C343.223 234.816 342.36 235.767 342.36 236.936V278.041C342.36 279.21 343.224 280.16 344.285 280.16H394.105C395.168 280.16 396.031 279.209 396.031 278.041V236.936C396.031 235.767 395.167 234.816 394.105 234.816H344.285Z" fill="#F8E643"/>
<path d="M374.05 251.582H364.34C364.011 251.582 363.745 251.289 363.745 250.927C363.745 250.566 364.011 250.272 364.34 250.272H374.05C374.379 250.272 374.645 250.566 374.645 250.927C374.645 251.29 374.379 251.582 374.05 251.582Z" fill="#F8E643"/>
<path d="M381.366 262.156H357.023C356.695 262.156 356.428 261.862 356.428 261.501C356.428 261.139 356.695 260.846 357.023 260.846H381.366C381.695 260.846 381.961 261.139 381.961 261.501C381.961 261.862 381.696 262.156 381.366 262.156Z" fill="#F8E643"/>
<path d="M393.596 344.076H222.632C220.633 344.076 219.007 342.287 219.007 340.087V293.512C219.007 291.311 220.633 289.521 222.632 289.521H393.596C395.596 289.521 397.222 291.311 397.222 293.512V340.087C397.222 342.287 395.596 344.076 393.596 344.076ZM222.632 290.832C221.289 290.832 220.197 292.034 220.197 293.512V340.087C220.197 341.565 221.289 342.766 222.632 342.766H393.596C394.939 342.766 396.031 341.565 396.031 340.087V293.512C396.031 292.034 394.939 290.832 393.596 290.832H222.632Z" fill="#F8E643"/>
<path d="M393.596 402.596H222.632C220.633 402.596 219.007 400.806 219.007 398.607V352.031C219.007 349.832 220.633 348.042 222.632 348.042H393.596C395.596 348.042 397.222 349.832 397.222 352.031V398.607C397.222 400.805 395.596 402.596 393.596 402.596ZM222.632 349.352C221.289 349.352 220.197 350.553 220.197 352.031V398.607C220.197 400.084 221.289 401.286 222.632 401.286H393.596C394.939 401.286 396.031 400.084 396.031 398.607V352.031C396.031 350.553 394.939 349.352 393.596 349.352H222.632Z" fill="#F8E643"/>
<path opacity="0.6" d="M249.256 328.627H228.756V306.066H249.256V328.627ZM229.947 327.317H248.066V307.376H229.947V327.317Z" fill="#222222"/>
<path opacity="0.6" d="M249.256 386.599H228.756V364.038H249.256V386.599ZM229.947 385.289H248.066V365.348H229.947V385.289Z" fill="#222222"/>
<path d="M310.935 225.817H229.031C224.912 225.817 221.542 222.108 221.542 217.575V138.459C221.542 133.927 224.912 130.218 229.031 130.218H310.935C315.054 130.218 318.424 133.927 318.424 138.459V217.575C318.424 222.108 315.054 225.817 310.935 225.817Z" fill="#F8E643"/>
<path d="M266.02 208.721C265.47 208.721 264.932 208.511 264.491 208.11C263.838 207.514 263.522 206.608 263.645 205.684L266.384 185.271L245.354 193.214C244.404 193.572 243.414 193.755 242.409 193.755H232.95C232.545 193.755 232.183 193.487 232.032 193.075C231.88 192.661 231.968 192.194 232.258 191.882L237.002 186.769L230.442 180.385C229.928 179.867 229.661 179.142 229.701 178.388C229.742 177.633 230.085 176.948 230.642 176.506L232.361 175.144C233.115 174.546 234.088 174.39 234.968 174.727L245.418 178.735L257.465 172.06L244.204 162.136C243.88 161.892 243.674 161.506 243.639 161.075C243.605 160.644 243.747 160.225 244.028 159.922L245.852 157.966C248.003 155.661 251.111 154.865 253.967 155.888L274.693 163.33L293.32 153.931C296.389 152.383 299.862 152.131 303.089 153.221C305.718 154.109 308.022 155.823 309.752 158.18C310.189 158.776 310.359 159.546 310.219 160.294C310.077 161.044 309.644 161.676 309.028 162.033L283.915 176.54L272.64 204.201C271.983 205.814 270.735 207.073 269.217 207.654L266.815 208.574C266.554 208.672 266.286 208.721 266.02 208.721ZM267.115 183.646C267.252 183.646 267.388 183.697 267.495 183.797C267.655 183.943 267.734 184.17 267.704 184.397L264.823 205.875C264.76 206.342 264.92 206.8 265.25 207.101C265.579 207.401 266.016 207.491 266.425 207.335L268.828 206.415C270.037 205.951 271.033 204.949 271.555 203.663L282.914 175.795C282.969 175.661 283.062 175.551 283.181 175.483L308.476 160.869C308.775 160.698 308.986 160.39 309.053 160.026C309.122 159.663 309.039 159.288 308.828 159C307.248 156.847 305.143 155.282 302.743 154.471C299.792 153.475 296.622 153.706 293.817 155.119L274.98 164.625C274.846 164.693 274.692 164.703 274.548 164.653L253.6 157.133C251.169 156.259 248.517 156.938 246.684 158.903L244.86 160.859L244.541 161.592L244.876 161.05L258.974 171.6C259.149 171.731 259.247 171.954 259.233 172.184C259.219 172.416 259.095 172.622 258.907 172.727L245.73 180.028C245.585 180.108 245.416 180.118 245.267 180.06L234.578 175.963C234.065 175.765 233.499 175.858 233.059 176.206L231.341 177.569C231.075 177.778 230.913 178.105 230.893 178.463C230.874 178.822 231.001 179.167 231.242 179.411L238.272 186.253C238.397 186.374 238.469 186.545 238.474 186.727C238.477 186.909 238.413 187.085 238.295 187.212L233.442 192.443H242.413C243.284 192.443 244.146 192.285 244.971 191.973L266.924 183.68C266.985 183.658 267.049 183.646 267.115 183.646Z" fill="#222222"/>
<path d="M314.273 111.709H225.234C223.937 111.709 222.882 110.548 222.882 109.121V101.082C222.882 99.6553 223.937 98.4933 225.234 98.4933H314.273C315.57 98.4933 316.626 99.654 316.626 101.082V109.121C316.626 110.547 315.57 111.709 314.273 111.709ZM225.234 99.8034C224.593 99.8034 224.072 100.377 224.072 101.082V109.121C224.072 109.825 224.593 110.399 225.234 110.399H314.273C314.914 110.399 315.435 109.825 315.435 109.121V101.082C315.435 100.377 314.914 99.8034 314.273 99.8034H225.234Z" fill="#4D67C2"/>
<path d="M399.243 119.557H223.662V120.867H399.243V119.557Z" fill="#4D67C2"/>
<path d="M395.474 174.44H328.116C326.724 174.44 325.594 173.198 325.594 171.666V134.432C325.594 132.901 326.723 131.658 328.116 131.658H395.474C396.866 131.658 397.995 132.9 397.995 134.432V171.666C397.995 173.198 396.867 174.44 395.474 174.44Z" fill="#555555"/>
<path d="M371.244 147.688H354.591C354.263 147.688 353.996 147.394 353.996 147.032C353.996 146.671 354.263 146.377 354.591 146.377H371.244C371.573 146.377 371.839 146.671 371.839 147.032C371.839 147.395 371.573 147.688 371.244 147.688Z" fill="white"/>
<path d="M383.791 157.383H342.046C341.717 157.383 341.451 157.09 341.451 156.728C341.451 156.367 341.717 156.073 342.046 156.073H383.791C384.12 156.073 384.386 156.367 384.386 156.728C384.386 157.09 384.12 157.383 383.791 157.383Z" fill="white"/>
<path d="M395.474 223.758H328.116C326.724 223.758 325.594 222.516 325.594 220.983V183.75C325.594 182.218 326.723 180.975 328.116 180.975H395.474C396.866 180.975 397.995 182.217 397.995 183.75V220.983C397.995 222.516 396.867 223.758 395.474 223.758Z" fill="#F8E643"/>
<path d="M371.244 197.005H354.591C354.263 197.005 353.996 196.711 353.996 196.35C353.996 195.988 354.263 195.695 354.591 195.695H371.244C371.573 195.695 371.839 195.988 371.839 196.35C371.839 196.711 371.573 197.005 371.244 197.005Z" fill="white"/>
<path d="M383.791 206.701H342.046C341.717 206.701 341.451 206.407 341.451 206.046C341.451 205.684 341.717 205.391 342.046 205.391H383.791C384.12 205.391 384.386 205.684 384.386 206.046C384.386 206.409 384.12 206.701 383.791 206.701Z" fill="white"/>
<path d="M269.238 322.548V310.117H275.88C277.596 310.117 278.863 310.425 279.68 311.04C280.497 311.644 280.905 312.419 280.905 313.367C280.905 313.994 280.728 314.556 280.372 315.054C280.029 315.539 279.526 315.924 278.863 316.208C278.2 316.492 277.383 316.634 276.412 316.634L276.767 315.675C277.738 315.675 278.573 315.811 279.271 316.084C279.982 316.356 280.526 316.752 280.905 317.273C281.296 317.782 281.491 318.398 281.491 319.12C281.491 320.198 281.041 321.038 280.142 321.642C279.254 322.246 277.951 322.548 276.235 322.548H269.238ZM273.358 319.617H275.88C276.341 319.617 276.685 319.535 276.91 319.369C277.146 319.203 277.265 318.96 277.265 318.641C277.265 318.321 277.146 318.078 276.91 317.913C276.685 317.747 276.341 317.664 275.88 317.664H273.074V314.894H275.311C275.785 314.894 276.128 314.817 276.341 314.663C276.566 314.497 276.679 314.266 276.679 313.97C276.679 313.663 276.566 313.432 276.341 313.278C276.128 313.124 275.785 313.047 275.311 313.047H273.358V319.617ZM289.508 322.832C288.49 322.832 287.549 322.672 286.684 322.352C285.832 322.033 285.092 321.583 284.465 321.003C283.837 320.411 283.346 319.718 282.991 318.925C282.647 318.132 282.476 317.267 282.476 316.332C282.476 315.385 282.647 314.521 282.991 313.739C283.346 312.946 283.837 312.26 284.465 311.679C285.092 311.088 285.832 310.632 286.684 310.312C287.549 309.992 288.484 309.833 289.49 309.833C290.508 309.833 291.444 309.992 292.296 310.312C293.148 310.632 293.888 311.088 294.516 311.679C295.143 312.26 295.629 312.946 295.972 313.739C296.327 314.521 296.505 315.385 296.505 316.332C296.505 317.267 296.327 318.132 295.972 318.925C295.629 319.718 295.143 320.411 294.516 321.003C293.888 321.583 293.148 322.033 292.296 322.352C291.444 322.672 290.514 322.832 289.508 322.832ZM289.49 319.44C289.881 319.44 290.242 319.369 290.573 319.227C290.917 319.085 291.213 318.883 291.461 318.623C291.722 318.351 291.923 318.025 292.065 317.646C292.207 317.256 292.278 316.818 292.278 316.332C292.278 315.847 292.207 315.415 292.065 315.036C291.923 314.645 291.722 314.32 291.461 314.059C291.213 313.787 290.917 313.58 290.573 313.438C290.242 313.296 289.881 313.224 289.49 313.224C289.1 313.224 288.733 313.296 288.389 313.438C288.058 313.58 287.762 313.787 287.501 314.059C287.253 314.32 287.057 314.645 286.915 315.036C286.773 315.415 286.702 315.847 286.702 316.332C286.702 316.818 286.773 317.256 286.915 317.646C287.057 318.025 287.253 318.351 287.501 318.623C287.762 318.883 288.058 319.085 288.389 319.227C288.733 319.369 289.1 319.44 289.49 319.44ZM304.561 322.832C303.543 322.832 302.602 322.672 301.737 322.352C300.885 322.033 300.145 321.583 299.518 321.003C298.89 320.411 298.399 319.718 298.044 318.925C297.7 318.132 297.529 317.267 297.529 316.332C297.529 315.385 297.7 314.521 298.044 313.739C298.399 312.946 298.89 312.26 299.518 311.679C300.145 311.088 300.885 310.632 301.737 310.312C302.602 309.992 303.537 309.833 304.543 309.833C305.561 309.833 306.497 309.992 307.349 310.312C308.201 310.632 308.941 311.088 309.569 311.679C310.196 312.26 310.682 312.946 311.025 313.739C311.38 314.521 311.558 315.385 311.558 316.332C311.558 317.267 311.38 318.132 311.025 318.925C310.682 319.718 310.196 320.411 309.569 321.003C308.941 321.583 308.201 322.033 307.349 322.352C306.497 322.672 305.567 322.832 304.561 322.832ZM304.543 319.44C304.934 319.44 305.295 319.369 305.626 319.227C305.97 319.085 306.266 318.883 306.514 318.623C306.775 318.351 306.976 318.025 307.118 317.646C307.26 317.256 307.331 316.818 307.331 316.332C307.331 315.847 307.26 315.415 307.118 315.036C306.976 314.645 306.775 314.32 306.514 314.059C306.266 313.787 305.97 313.58 305.626 313.438C305.295 313.296 304.934 313.224 304.543 313.224C304.153 313.224 303.786 313.296 303.442 313.438C303.111 313.58 302.815 313.787 302.554 314.059C302.306 314.32 302.11 314.645 301.968 315.036C301.826 315.415 301.755 315.847 301.755 316.332C301.755 316.818 301.826 317.256 301.968 317.646C302.11 318.025 302.306 318.351 302.554 318.623C302.815 318.883 303.111 319.085 303.442 319.227C303.786 319.369 304.153 319.44 304.543 319.44ZM316.826 319.884L316.595 315.284L321.283 310.117H325.847L320.591 315.906L318.264 318.286L316.826 319.884ZM313.079 322.548V310.117H317.199V322.548H313.079ZM321.248 322.548L317.59 317.717L320.307 314.84L326.096 322.548H321.248ZM330.494 314.734H336.034V317.753H330.494V314.734ZM330.778 319.387H336.993V322.548H326.658V310.117H336.762V313.278H330.778V319.387ZM338.607 322.548V310.117H344.733C346.118 310.117 347.338 310.371 348.391 310.88C349.445 311.378 350.268 312.088 350.86 313.011C351.452 313.935 351.748 315.036 351.748 316.314C351.748 317.605 351.452 318.718 350.86 319.653C350.268 320.576 349.445 321.293 348.391 321.802C347.338 322.299 346.118 322.548 344.733 322.548H338.607ZM342.798 319.28H344.556C345.148 319.28 345.663 319.168 346.101 318.943C346.55 318.718 346.9 318.386 347.148 317.948C347.397 317.498 347.521 316.954 347.521 316.314C347.521 315.687 347.397 315.154 347.148 314.716C346.9 314.278 346.55 313.947 346.101 313.722C345.663 313.497 345.148 313.384 344.556 313.384H342.798V319.28Z" fill="#222222"/>
<path d="M386.735 335.561H259.193C257.431 335.561 255.997 333.984 255.997 332.044V301.245C255.997 299.306 257.43 297.728 259.193 297.728H386.737C388.498 297.728 389.933 299.305 389.933 301.245V332.044C389.932 333.984 388.499 335.561 386.735 335.561ZM259.193 299.039C258.087 299.039 257.187 300.03 257.187 301.247V332.045C257.187 333.262 258.087 334.252 259.193 334.252H386.737C387.843 334.252 388.743 333.262 388.743 332.045V301.247C388.743 300.03 387.843 299.039 386.737 299.039H259.193Z" fill="#F8E643"/>
<path d="M275.297 381.754C274.303 381.754 273.379 381.6 272.527 381.292C271.686 380.972 270.952 380.522 270.325 379.942C269.709 379.362 269.23 378.676 268.887 377.882C268.543 377.089 268.372 376.213 268.372 375.254C268.372 374.295 268.543 373.419 268.887 372.626C269.23 371.833 269.709 371.146 270.325 370.566C270.952 369.986 271.686 369.542 272.527 369.234C273.379 368.914 274.303 368.755 275.297 368.755C276.517 368.755 277.594 368.968 278.529 369.394C279.476 369.82 280.258 370.436 280.873 371.241L278.227 373.603C277.86 373.141 277.452 372.786 277.002 372.537C276.564 372.277 276.067 372.146 275.51 372.146C275.072 372.146 274.676 372.217 274.321 372.36C273.965 372.502 273.658 372.709 273.397 372.981C273.149 373.253 272.953 373.585 272.811 373.976C272.669 374.354 272.598 374.781 272.598 375.254C272.598 375.728 272.669 376.16 272.811 376.551C272.953 376.929 273.149 377.255 273.397 377.527C273.658 377.8 273.965 378.007 274.321 378.149C274.676 378.291 275.072 378.362 275.51 378.362C276.067 378.362 276.564 378.238 277.002 377.989C277.452 377.729 277.86 377.367 278.227 376.906L280.873 379.268C280.258 380.061 279.476 380.676 278.529 381.114C277.594 381.541 276.517 381.754 275.297 381.754ZM280.56 381.47L285.995 369.039H290.114L295.549 381.47H291.215L287.202 371.028H288.836L284.822 381.47H280.56ZM283.792 379.303L284.858 376.284H290.576L291.642 379.303H283.792ZM296.217 381.47V369.039H299.662L305.984 376.604H304.386V369.039H308.471V381.47H305.026L298.704 373.905H300.302V381.47H296.217ZM316.918 381.754C315.924 381.754 315.001 381.6 314.148 381.292C313.308 380.972 312.574 380.522 311.946 379.942C311.331 379.362 310.851 378.676 310.508 377.882C310.164 377.089 309.993 376.213 309.993 375.254C309.993 374.295 310.164 373.419 310.508 372.626C310.851 371.833 311.331 371.146 311.946 370.566C312.574 369.986 313.308 369.542 314.148 369.234C315.001 368.914 315.924 368.755 316.918 368.755C318.138 368.755 319.215 368.968 320.151 369.394C321.098 369.82 321.879 370.436 322.495 371.241L319.849 373.603C319.482 373.141 319.073 372.786 318.623 372.537C318.185 372.277 317.688 372.146 317.132 372.146C316.694 372.146 316.297 372.217 315.942 372.36C315.587 372.502 315.279 372.709 315.018 372.981C314.77 373.253 314.574 373.585 314.432 373.976C314.29 374.354 314.219 374.781 314.219 375.254C314.219 375.728 314.29 376.16 314.432 376.551C314.574 376.929 314.77 377.255 315.018 377.527C315.279 377.8 315.587 378.007 315.942 378.149C316.297 378.291 316.694 378.362 317.132 378.362C317.688 378.362 318.185 378.238 318.623 377.989C319.073 377.729 319.482 377.367 319.849 376.906L322.495 379.268C321.879 380.061 321.098 380.676 320.151 381.114C319.215 381.541 318.138 381.754 316.918 381.754ZM327.54 373.656H333.081V376.675H327.54V373.656ZM327.825 378.309H334.04V381.47H323.705V369.039H333.809V372.2H327.825V378.309ZM335.653 381.47V369.039H339.844V378.22H345.456V381.47H335.653ZM350.449 373.656H355.99V376.675H350.449V373.656ZM350.734 378.309H356.949V381.47H346.614V369.039H356.718V372.2H350.734V378.309ZM358.562 381.47V369.039H364.689C366.074 369.039 367.294 369.293 368.347 369.802C369.401 370.3 370.224 371.01 370.816 371.933C371.408 372.857 371.704 373.958 371.704 375.236C371.704 376.527 371.408 377.64 370.816 378.575C370.224 379.498 369.401 380.215 368.347 380.724C367.294 381.221 366.074 381.47 364.689 381.47H358.562ZM362.753 378.202H364.511C365.103 378.202 365.618 378.09 366.056 377.865C366.506 377.64 366.856 377.308 367.104 376.87C367.353 376.42 367.477 375.876 367.477 375.236C367.477 374.609 367.353 374.076 367.104 373.638C366.856 373.2 366.506 372.869 366.056 372.644C365.618 372.419 365.103 372.306 364.511 372.306H362.753V378.202Z" fill="#222222"/>
<path d="M386.735 394.78H259.193C257.431 394.78 255.997 393.203 255.997 391.264V360.466C255.997 358.527 257.43 356.948 259.193 356.948H386.737C388.498 356.948 389.933 358.525 389.933 360.466V391.264C389.932 393.203 388.499 394.78 386.735 394.78ZM259.193 358.259C258.087 358.259 257.187 359.25 257.187 360.467V391.265C257.187 392.482 258.087 393.471 259.193 393.471H386.737C387.843 393.471 388.743 392.482 388.743 391.265V360.467C388.743 359.25 387.843 358.259 386.737 358.259H259.193Z" fill="#F8E643"/>
<path d="M58.248 334.51L71.8843 275.626L68.813 274.462L55.1768 333.346L58.248 334.51Z" fill="#323233"/>
<path d="M87.5454 344.352L101.183 285.468L98.1116 284.303L84.4742 343.188L87.5454 344.352Z" fill="#323233"/>
<path d="M102.644 288.466L64.7081 278.369C62.7392 277.845 61.5297 275.664 62.0059 273.498L62.1142 273.006C62.5904 270.839 64.5712 269.508 66.5402 270.032L104.478 280.128C106.447 280.652 107.656 282.832 107.18 284.999L107.072 285.492C106.595 287.657 104.613 288.99 102.644 288.466Z" fill="#141C34"/>
<path d="M57.711 489.668L4.9529 473.394C1.34713 472.282 -0.757529 468.163 0.253135 464.195L34.1681 331.035C35.1788 327.067 38.9215 324.75 42.5272 325.863L95.2853 342.136C98.8911 343.249 100.996 347.367 99.9851 351.336L66.0701 484.496C65.0606 488.465 61.318 490.78 57.711 489.668Z" fill="#F8E543"/>
<path opacity="0.49" d="M70.3188 465.844L18.7416 450.378C14.6978 449.129 12.3312 444.498 13.4645 440.052L40.6536 333.301C41.2024 331.146 42.4797 329.357 44.2511 328.26C46.0224 327.164 48.0747 326.891 50.0329 327.498L49.7127 328.759C48.0616 328.25 46.3295 328.478 44.8344 329.402C43.3392 330.327 42.2619 331.837 41.7988 333.654L14.6097 440.404C14.1466 442.222 14.3537 444.129 15.1942 445.773C16.0346 447.418 17.406 448.605 19.0571 449.115L70.6307 464.58L70.3188 465.844Z" fill="#111111"/>
<path opacity="0.49" d="M51.6626 489.047L6.13509 474.492L7.07314 470.933C7.88143 467.88 10.7968 466.119 13.5681 467.002L49.0318 478.34C50.3758 478.769 51.4876 479.749 52.1614 481.099C52.8352 482.449 52.9923 484.008 52.6018 485.487L51.6626 489.047ZM7.60882 473.599L50.8507 487.422L51.4578 485.122C51.7602 483.98 51.6388 482.774 51.1186 481.732C50.5972 480.687 49.7389 479.93 48.6996 479.599L13.2359 468.261C11.0872 467.575 8.84091 468.94 8.21713 471.298L7.60882 473.599Z" fill="#111111"/>
<path d="M60.2966 489.107C61.318 495.647 57.3277 501.859 51.3852 502.983C45.4426 504.107 39.7977 499.716 38.7763 493.176C37.7549 486.636 41.7452 480.424 47.6877 479.3C53.6303 478.176 59.2765 482.567 60.2966 489.107Z" fill="#434343"/>
<path opacity="0.27" d="M55.5277 490.008C56.0967 493.65 53.8742 497.109 50.5661 497.734C47.2579 498.359 44.114 495.914 43.545 492.274C42.9771 488.632 45.1985 485.173 48.5067 484.548C51.8148 483.923 54.9599 486.368 55.5277 490.008Z" fill="#A2D5F2"/>
<path opacity="0.49" d="M58.3205 446.947C58.1062 446.947 57.8919 446.914 57.6812 446.847L55.7551 446.231C55.1718 446.044 54.6885 445.618 54.3957 445.033C54.1028 444.446 54.0338 443.768 54.204 443.126L76.7208 357.823C76.891 357.181 77.2779 356.649 77.81 356.327C78.3409 356.006 78.9576 355.931 79.5421 356.116L81.467 356.732C82.0503 356.919 82.5336 357.345 82.8264 357.93C83.1193 358.517 83.1883 359.195 83.0181 359.837L60.5013 445.14C60.3311 445.782 59.9454 446.314 59.4133 446.636C59.0728 446.842 58.699 446.947 58.3205 446.947ZM78.9052 357.326C78.7254 357.326 78.5457 357.376 78.3838 357.474C78.129 357.628 77.9445 357.882 77.8648 358.188L55.348 443.492C55.2671 443.799 55.2992 444.121 55.4385 444.4C55.5778 444.68 55.8087 444.883 56.0873 444.972L58.0134 445.588C58.2883 445.675 58.5848 445.642 58.8383 445.489C59.0931 445.335 59.2764 445.082 59.3562 444.776L81.8729 359.471C81.9538 359.165 81.9217 358.842 81.7824 358.563C81.6431 358.283 81.4122 358.08 81.1336 357.991L79.2087 357.375C79.1099 357.344 79.0076 357.326 78.9052 357.326Z" fill="#111111"/>
<path opacity="0.49" d="M39.1752 440.827C38.9645 440.827 38.7526 440.796 38.5407 440.728L36.6158 440.112C36.0325 439.925 35.5492 439.499 35.2563 438.913C34.9635 438.328 34.8944 437.651 35.0647 437.009L57.5814 351.704C57.9326 350.379 59.1932 349.616 60.4015 349.997L62.3276 350.614C62.9109 350.801 63.393 351.226 63.6871 351.811C63.9799 352.397 64.0489 353.074 63.8787 353.717L41.362 439.021C41.0727 440.115 40.162 440.827 39.1752 440.827ZM59.7682 351.209C59.298 351.209 58.8623 351.548 58.7254 352.069L36.2086 437.374C36.1277 437.679 36.1598 438.003 36.2991 438.281C36.4384 438.561 36.6693 438.764 36.9479 438.853L38.8728 439.469C39.149 439.557 39.4442 439.523 39.6978 439.369C39.9525 439.216 40.137 438.963 40.2168 438.655L62.7335 353.352C62.8145 353.045 62.7823 352.723 62.6431 352.444C62.5038 352.164 62.2728 351.962 61.9955 351.873L60.0682 351.256C59.9694 351.224 59.8682 351.209 59.7682 351.209Z" fill="#111111"/>
<path d="M192.096 159.568C191.112 157.81 189.88 156.179 189.476 154.046C188.855 150.767 190.364 147.545 191.153 144.336C192.432 139.139 191.741 133.131 189.355 128.686C187.189 124.657 183.895 122.09 180.921 119.114C180.304 118.49 180.729 114.773 180.668 113.855C180.448 110.51 180.109 107.124 179.282 103.882C177.956 98.6766 175.284 94.6796 170.778 92.2508C166.391 89.8861 161.393 89.0765 156.532 88.9625C152.59 88.8695 148.611 89.1944 144.818 90.3525C141.024 91.5106 137.411 93.532 134.616 96.5255C130.13 101.33 128.785 107.734 128.687 114.32C128.675 115.151 129.156 118.816 128.723 119.252C125.761 122.243 119.856 124.833 117.709 128.875C115.342 133.333 114.677 139.344 115.978 144.534C116.782 147.739 118.305 150.952 117.699 154.235C117.305 156.369 116.08 158.008 115.102 159.77C114.125 161.534 113.345 163.863 113.993 165.882C115.596 170.89 124.64 169.491 127.792 169.617C134.618 169.89 141.447 170.033 148.277 170.046C150.059 170.05 151.841 170.02 153.622 170.006C155.404 170.011 157.186 170.031 158.967 170.017C165.796 169.968 172.624 169.788 179.45 169.479C182.601 169.336 191.651 170.687 193.233 165.671C193.87 163.651 193.081 161.326 192.096 159.568Z" fill="#423E49"/>
<path d="M174.586 112.686L172.446 112.668C171.508 112.66 170.635 112.155 170.122 111.323L168.415 108.554C167.657 108.548 167.798 112.592 167.059 112.516C162.837 112.082 158.989 110.531 155.836 108.21C155.956 115.873 152.955 122.123 148.614 122.653L143.72 123.252C143.208 123.315 142.747 122.909 142.691 122.347L142.285 118.326C142.251 117.986 142.233 117.65 142.211 117.314L140.759 117.315L137.974 117.259C134.675 117.193 131.926 120.108 131.867 123.738C131.806 127.368 134.456 130.392 137.755 130.459L138.922 130.482V157.843C138.922 163.598 143.201 168.308 148.43 168.308H152.309C157.538 168.308 161.818 163.599 161.818 157.843V150.119C165.496 149.138 168.648 146.668 170.704 143.299C172.905 140.511 174.266 136.894 174.333 132.913L174.644 114.096C174.65 113.619 174.615 113.154 174.586 112.686Z" fill="#FFA698"/>
<path opacity="0.41" d="M141.882 132.26C141.732 141.267 148.246 148.701 156.43 148.866L159.239 148.923C163.796 149.014 167.907 146.828 170.684 143.321C168.54 146.816 165.217 149.355 161.347 150.242C161.337 150.275 161.332 150.307 161.323 150.339C159.934 155.058 155.331 157.643 151.043 156.114C147.223 154.751 144.951 150.583 145.481 146.354C142.349 143.274 140.4 138.776 140.483 133.791L140.538 130.515L141.911 130.543L141.882 132.26Z" fill="#FF755F"/>
<path d="M136.012 125.661C136.094 125.661 136.178 125.642 136.254 125.6L138.771 124.239C138.917 124.16 139.023 124.017 139.062 123.846C139.102 123.674 139.071 123.492 138.98 123.348L136.825 119.96C136.65 119.685 136.309 119.618 136.059 119.811C135.809 120.002 135.749 120.38 135.923 120.654L137.71 123.463L135.77 124.512C135.497 124.66 135.385 125.022 135.518 125.323C135.613 125.537 135.809 125.661 136.012 125.661Z" fill="#FF755F"/>
<path d="M138.307 128.072C138.244 128.674 137.749 129.108 137.201 129.039C136.654 128.969 136.261 128.424 136.323 127.822C136.386 127.219 136.881 126.785 137.429 126.855C137.976 126.924 138.37 127.469 138.307 128.072Z" fill="white"/>
<mask id="mask0_2_581" style="mask-type:luminance" maskUnits="userSpaceOnUse" x="167" y="123" width="7" height="5">
<path d="M173.939 126.276C173.805 125.179 173.271 123.551 171.286 123.213C170.959 123.156 170.656 123.16 170.37 123.202C169.045 123.395 168.146 124.507 167.61 125.461C167.214 126.166 167.58 127.104 168.32 127.262C170.342 127.695 172.361 127.529 173.347 127.4C173.72 127.351 173.996 126.99 173.969 126.578C173.961 126.483 173.952 126.382 173.939 126.276Z" fill="white"/>
</mask>
<g mask="url(#mask0_2_581)">
<path d="M173.939 126.276C173.805 125.179 173.271 123.551 171.286 123.213C170.959 123.156 170.656 123.16 170.37 123.202C169.045 123.395 168.146 124.507 167.61 125.461C167.214 126.166 167.58 127.104 168.32 127.262C170.342 127.695 172.361 127.529 173.347 127.4C173.72 127.351 173.996 126.99 173.969 126.578C173.961 126.483 173.952 126.382 173.939 126.276Z" fill="white"/>
</g>
<mask id="mask1_2_581" style="mask-type:luminance" maskUnits="userSpaceOnUse" x="167" y="123" width="7" height="5">
<path d="M173.939 126.276C173.805 125.179 173.271 123.551 171.286 123.213C170.959 123.156 170.656 123.16 170.37 123.202C169.045 123.395 168.146 124.507 167.61 125.461C167.214 126.166 167.58 127.104 168.32 127.262C170.342 127.695 172.361 127.529 173.347 127.4C173.72 127.351 173.996 126.99 173.969 126.578C173.961 126.483 173.952 126.382 173.939 126.276Z" fill="white"/>
</mask>
<g mask="url(#mask1_2_581)">
<path d="M173.682 126.629C173.682 127.806 172.728 128.76 171.552 128.76C170.376 128.76 169.422 127.806 169.422 126.629C169.422 125.453 170.376 124.499 171.552 124.499C172.728 124.499 173.682 125.452 173.682 126.629Z" fill="#423E49"/>
</g>
<path d="M166.791 120.519L166.739 125.08C166.731 125.866 167.388 126.534 168.232 126.597C168.836 126.641 169.298 127.131 169.263 127.692C169.156 129.454 167.531 130.768 165.635 130.629L164.143 130.519" fill="#FFA698"/>
<path d="M165.914 131.243C166.846 131.243 167.737 130.936 168.446 130.36C169.265 129.698 169.751 128.765 169.813 127.731C169.868 126.839 169.176 126.058 168.27 125.991C167.724 125.951 167.284 125.545 167.289 125.086L167.34 120.526C167.344 120.19 167.101 119.917 166.797 119.913C166.794 119.913 166.793 119.913 166.79 119.913C166.489 119.913 166.244 120.18 166.24 120.51L166.189 125.07C166.177 126.18 167.059 127.115 168.196 127.199C168.486 127.222 168.728 127.431 168.715 127.65C168.675 128.321 168.349 128.938 167.795 129.383C167.214 129.853 166.452 130.076 165.674 130.022L164.183 129.912C163.856 129.894 163.617 130.143 163.598 130.476C163.577 130.81 163.807 131.098 164.11 131.12L165.6 131.23C165.703 131.24 165.808 131.243 165.914 131.243Z" fill="#FF755F"/>
<path d="M161.359 136.366C161.359 136.366 160.76 131.549 155.565 132.575L161.359 136.366Z" fill="#FFA698"/>
<path d="M161.358 136.856C161.138 136.856 160.948 136.678 160.917 136.433C160.914 136.416 160.681 134.723 159.402 133.706C158.474 132.968 157.209 132.749 155.644 133.057C155.394 133.108 155.169 132.926 155.125 132.66C155.082 132.392 155.243 132.137 155.486 132.088C157.305 131.731 158.801 132.009 159.936 132.916C161.523 134.186 161.79 136.21 161.8 136.296C161.833 136.565 161.664 136.811 161.42 136.848C161.399 136.854 161.379 136.856 161.358 136.856Z" fill="#FF755F"/>
<mask id="mask2_2_581" style="mask-type:luminance" maskUnits="userSpaceOnUse" x="155" y="121" width="9" height="6">
<path d="M163.769 125.28C163.606 123.94 162.952 121.95 160.528 121.537C160.128 121.469 159.757 121.473 159.407 121.524C157.787 121.759 156.69 123.12 156.035 124.283C155.55 125.145 155.998 126.292 156.902 126.484C159.373 127.012 161.842 126.81 163.045 126.652C163.5 126.592 163.838 126.15 163.805 125.647C163.798 125.533 163.785 125.409 163.769 125.28Z" fill="white"/>
</mask>
<g mask="url(#mask2_2_581)">
<path d="M163.769 125.28C163.606 123.94 162.952 121.95 160.528 121.537C160.128 121.469 159.757 121.473 159.407 121.524C157.787 121.759 156.69 123.12 156.035 124.283C155.55 125.145 155.998 126.292 156.902 126.484C159.373 127.012 161.842 126.81 163.045 126.652C163.5 126.592 163.838 126.15 163.805 125.647C163.798 125.533 163.785 125.409 163.769 125.28Z" fill="white"/>
</g>
<mask id="mask3_2_581" style="mask-type:luminance" maskUnits="userSpaceOnUse" x="155" y="121" width="9" height="6">
<path d="M163.769 125.28C163.606 123.94 162.952 121.95 160.528 121.537C160.128 121.469 159.757 121.473 159.407 121.524C157.787 121.759 156.69 123.12 156.035 124.283C155.55 125.145 155.998 126.292 156.902 126.484C159.373 127.012 161.842 126.81 163.045 126.652C163.5 126.592 163.838 126.15 163.805 125.647C163.798 125.533 163.785 125.409 163.769 125.28Z" fill="white"/>
</mask>
<g mask="url(#mask3_2_581)">
<path d="M163.455 125.711C163.455 127.15 162.289 128.316 160.851 128.316C159.413 128.316 158.248 127.15 158.248 125.711C158.248 124.273 159.413 123.107 160.851 123.107C162.289 123.107 163.455 124.273 163.455 125.711Z" fill="#423E49"/>
</g>
<path d="M163.423 118.996C162.99 118.756 162.414 118.78 161.856 118.766C161.293 118.766 160.729 118.752 160.238 118.719C159.747 118.688 159.184 118.629 158.624 118.555C158.068 118.495 157.494 118.397 157.047 118.579C156.615 118.748 156.412 119.298 156.874 120.023C157.307 120.726 158.494 121.539 160.12 121.649C161.745 121.749 162.992 121.097 163.479 120.454C163.995 119.795 163.839 119.22 163.423 118.996Z" fill="#423E49"/>
<path d="M168.115 120.153C168.491 119.926 169.003 119.926 169.497 119.894C169.996 119.875 170.496 119.842 170.931 119.796C171.365 119.75 171.863 119.68 172.357 119.594C172.848 119.522 173.353 119.415 173.755 119.56C174.143 119.695 174.339 120.176 173.949 120.835C173.586 121.474 172.557 122.236 171.119 122.39C169.681 122.537 168.558 122.001 168.108 121.448C167.631 120.88 167.753 120.366 168.115 120.153Z" fill="#423E49"/>
<g opacity="0.61">
<path d="M159.531 142.589C159.531 142.589 160.937 141.157 162.604 142.589H159.531Z" fill="#FFA698"/>
<path d="M162.604 143.08C162.507 143.08 162.411 143.046 162.33 142.976C161.015 141.847 159.949 142.834 159.832 142.952C159.653 143.132 159.368 143.118 159.204 142.92C159.037 142.721 159.048 142.413 159.228 142.23C159.811 141.636 161.326 140.867 162.878 142.204C163.073 142.37 163.106 142.679 162.955 142.893C162.868 143.016 162.736 143.08 162.604 143.08Z" fill="#FF755F"/>
</g>
<path d="M87.4571 258.456L77.7564 260.371C76.0339 260.712 74.5792 261.979 73.884 263.746L69.6866 274.41C68.8521 276.53 69.7878 278.986 71.746 279.819L73.7721 280.68L74.5375 273.087L73.4447 283.924C73.3221 285.135 74.2983 286.126 75.3649 285.872C76.3172 285.645 77.0981 284.883 77.4267 283.857L80.8777 273.092L78.4147 285.831C78.2386 286.743 79.1242 287.446 79.8361 286.96C82.5467 285.105 84.6049 282.264 85.6644 278.913L86.5846 276C86.5846 276 91.9236 279.354 98.4018 276.927C100.468 276.152 101.867 274.08 102.006 271.684C102.292 266.808 100.712 258.838 87.4571 258.456Z" fill="#FFA698"/>
<path d="M73.1651 280.442C73.0365 280.342 72.9627 280.166 72.9877 279.98L74.0662 272.129C74.102 271.872 74.3174 271.696 74.5484 271.735C74.7793 271.775 74.9364 272.015 74.9007 272.273L73.8222 280.124C73.7865 280.381 73.571 280.558 73.3401 280.519C73.2758 280.508 73.2163 280.481 73.1651 280.442Z" fill="#FF8E77"/>
<path d="M79.3304 273.921C79.1828 273.807 79.1114 273.598 79.1662 273.396C79.234 273.147 79.4685 273.005 79.6923 273.08C79.6923 273.08 80.5149 273.358 81.428 273.689C81.653 273.771 81.772 274.036 81.6994 274.283C81.628 274.532 81.3899 274.667 81.1685 274.587C80.2625 274.26 79.4471 273.984 79.4471 273.984C79.4054 273.97 79.3662 273.949 79.3304 273.921Z" fill="#FF8E77"/>
<path d="M73.5854 272.002C73.4378 271.888 73.3664 271.678 73.4211 271.477C73.489 271.228 73.7235 271.086 73.9473 271.162C73.9473 271.162 74.7699 271.44 75.6829 271.77C75.9031 271.849 76.0269 272.116 75.9543 272.364C75.8829 272.612 75.6448 272.747 75.4234 272.668C74.5187 272.341 73.7044 272.066 73.7021 272.066C73.6592 272.049 73.6199 272.028 73.5854 272.002Z" fill="#FF8E77"/>
<path d="M85.9609 276.769C85.8049 276.649 85.7359 276.422 85.8049 276.215C86.0382 275.522 86.0882 274.541 86.0882 274.532C86.1001 274.271 86.299 274.071 86.5323 274.085C86.7656 274.099 86.9442 274.322 86.9311 274.581C86.9287 274.627 86.8739 275.716 86.5954 276.548C86.5132 276.792 86.2692 276.916 86.0513 276.824C86.0192 276.809 85.9883 276.792 85.9609 276.769Z" fill="#FF8E77"/>
<path d="M137.509 156.409C137.509 165.845 143.646 173.496 151.215 173.496C158.783 173.496 164.92 165.846 164.92 156.409C164.92 156.397 164.92 156.386 164.92 156.375C164.912 154.538 163.59 153.063 161.996 153.03C156.891 152.925 145.74 152.941 140.549 152.957C138.901 152.96 137.518 154.475 137.509 156.373C137.509 156.384 137.509 156.397 137.509 156.409Z" fill="#F8E643"/>
<path d="M189.575 163.774L178.485 162.241C176.998 162.035 175.943 160.543 176.129 158.906L179.401 130.075C179.587 128.436 180.945 127.275 182.435 127.481L193.525 129.014C195.011 129.219 196.066 130.712 195.88 132.349L192.607 161.18C192.422 162.817 191.064 163.979 189.575 163.774Z" fill="white"/>
<path d="M177.492 148.703C177.304 149.804 177.707 150.898 178.388 151.134L179.495 151.518C178.948 151.408 178.391 151.932 178.209 152.814C178.122 153.236 178.149 153.655 178.241 154.027C178.211 154.218 178.256 154.379 178.398 154.498C178.41 154.508 178.429 154.525 178.442 154.535C178.572 154.764 178.726 154.957 178.928 155.046L179.207 155.169C181.006 156.64 184.98 160.28 188.487 161.828L200.467 157.305C200.378 154.247 199.841 147.399 198.37 144.74C197.57 143.293 196.81 141.858 195.901 141.508L194.928 140.369C194.778 141.685 194.23 142.827 193.45 143.709C193.328 143.622 193.213 143.523 193.072 143.482L180.142 139.7C179.309 139.456 178.487 140.208 178.316 141.373C178.19 142.234 178.456 143.084 178.94 143.569L178.637 143.478C177.952 143.271 177.253 144.009 177.083 145.116C176.912 146.223 177.334 147.298 178.019 147.505L178.023 147.507C177.773 147.791 177.578 148.204 177.492 148.703ZM180.049 151.709L180.105 151.729L180.101 151.733L180.049 151.709Z" fill="#FFA698"/>
<path d="M183.984 145.171C184.145 145.179 184.292 145.058 184.329 144.879C184.369 144.677 184.255 144.478 184.072 144.433L178.711 143.113C178.521 143.066 178.347 143.194 178.305 143.396C178.265 143.597 178.379 143.797 178.562 143.841L183.923 145.162C183.944 145.167 183.963 145.169 183.984 145.171Z" fill="#FB8E77"/>
<path d="M183.567 149.203C183.723 149.21 183.868 149.097 183.908 148.925C183.956 148.726 183.848 148.522 183.667 148.469L179.041 147.133C178.85 147.083 178.673 147.2 178.626 147.399C178.579 147.598 178.687 147.803 178.868 147.855L183.494 149.193C183.519 149.198 183.542 149.202 183.567 149.203Z" fill="#FB8E77"/>
<path d="M183.48 153.182C183.631 153.188 183.773 153.084 183.819 152.916C183.873 152.719 183.772 152.51 183.592 152.451L179.642 151.143C179.458 151.083 179.273 151.196 179.218 151.394C179.165 151.59 179.266 151.8 179.446 151.859L183.395 153.166C183.425 153.177 183.453 153.18 183.48 153.182Z" fill="#FB8E77"/>
<path d="M150.997 177.692V171.629C150.997 162.855 144.534 155.743 136.562 155.743C136.562 155.743 130.502 177.449 150.997 177.692Z" fill="white"/>
<path d="M150.921 177.692V171.629C150.921 162.855 157.384 155.743 165.356 155.743C165.356 155.743 171.416 177.449 150.921 177.692Z" fill="white"/>
<path d="M182.215 216.427C182.025 216.427 181.838 216.326 181.723 216.14L176.688 207.995C176.503 207.696 176.572 207.289 176.845 207.084C177.116 206.883 177.486 206.957 177.671 207.257L182.706 215.402C182.891 215.701 182.822 216.108 182.549 216.313C182.447 216.39 182.33 216.427 182.215 216.427Z" fill="#FDFDFD"/>
<path d="M183.683 188.728C183.663 188.728 183.644 188.727 183.624 188.725C183.297 188.69 183.057 188.369 183.089 188.009L185.3 163.361C185.333 163.002 185.639 162.743 185.951 162.774C186.278 162.81 186.518 163.131 186.486 163.491L184.275 188.138C184.244 188.475 183.986 188.728 183.683 188.728Z" fill="#FDFDFD"/>
<path d="M189.231 167.329C188.358 167.329 187.648 166.547 187.648 165.587C187.648 164.627 188.358 163.844 189.231 163.844C190.103 163.844 190.814 164.627 190.814 165.587C190.814 166.547 190.105 167.329 189.231 167.329ZM189.231 165.153C189.014 165.153 188.838 165.347 188.838 165.586C188.838 165.824 189.014 166.018 189.231 166.018C189.448 166.018 189.624 165.824 189.624 165.586C189.624 165.347 189.448 165.153 189.231 165.153Z" fill="#FDFDFD"/>
<path d="M120.632 223.992C120.623 223.992 120.616 223.992 120.608 223.991C120.279 223.976 120.023 223.671 120.037 223.31L120.972 197.44C120.985 197.078 121.27 196.795 121.591 196.811C121.92 196.825 122.176 197.131 122.163 197.492L121.227 223.363C121.214 223.716 120.951 223.992 120.632 223.992Z" fill="#FDFDFD"/>
<path d="M187.001 479.55L186.463 475.258L182.659 353.344C174.429 353.64 162.387 354.074 150.584 354.497L169.862 485.578L187.587 489.131C191.26 489.867 195.887 486.59 197.868 483.107L187.001 479.55Z" fill="#FFA698"/>
<path d="M122.138 470.292L123.007 485.621L113.094 491.333C115.678 494.299 120.816 496.467 124.277 494.921L140.97 487.464L142.092 470.292L149.66 354.531C135.423 355.04 121.703 355.532 115.643 355.741L122.138 470.292Z" fill="#FFA698"/>
<path d="M185.432 353.244C189.578 353.095 192.758 349.428 192.426 345.181C190.95 326.284 187.289 279.476 187.171 278.429C186.246 270.182 183.526 262.239 179.184 255.267L175.974 250.116L172.91 245.197H124.951L121.885 250.116L121.034 251.484L118.677 255.269C112.723 264.827 109.82 276.21 110.409 287.698L106.547 348.722C106.312 352.436 108.937 355.642 112.393 355.85C112.427 355.853 113.606 355.812 115.642 355.741C121.702 355.53 135.423 355.04 149.659 354.531C149.967 354.52 150.276 354.508 150.584 354.498C162.387 354.075 174.429 353.641 182.66 353.345C183.639 353.309 184.568 353.276 185.432 353.244Z" fill="#F8E643"/>
<path d="M175.448 250.436H124.584C124.255 250.436 123.988 250.142 123.988 249.781C123.988 249.419 124.255 249.126 124.584 249.126H175.448C175.776 249.126 176.043 249.419 176.043 249.781C176.043 250.142 175.776 250.436 175.448 250.436Z" fill="#F95A4E"/>
<path d="M180.234 259.135H157.454C157.125 259.135 156.858 258.841 156.858 258.48C156.858 258.118 157.125 257.825 157.454 257.825H180.234C180.562 257.825 180.829 258.118 180.829 258.48C180.829 258.843 180.562 259.135 180.234 259.135Z" fill="#F95A4E"/>
<path d="M146.323 344.188C146.002 344.188 145.739 343.908 145.728 343.554C145.717 343.194 145.976 342.89 146.304 342.878L191.863 341.274C192.161 341.27 192.466 341.548 192.477 341.908C192.488 342.269 192.229 342.573 191.901 342.584L146.342 344.188C146.336 344.188 146.329 344.188 146.323 344.188Z" fill="#F95A4E"/>
<path d="M499.014 477.841L498.952 501.192L544.471 501.338C544.483 496.888 541.75 492.994 537.834 491.884L526.322 488.621C525.422 488.366 524.602 487.847 523.95 487.118L519.541 477.728L499.014 477.841Z" fill="#353148"/>
<path d="M519.741 489.423C519.569 489.423 519.407 489.315 519.333 489.132C519.232 488.883 519.333 488.594 519.558 488.484L523.574 486.505C523.797 486.393 524.063 486.503 524.163 486.753C524.264 487.001 524.163 487.291 523.938 487.401L519.923 489.38C519.863 489.408 519.801 489.423 519.741 489.423Z" fill="#EAEAEA"/>
<path d="M518.326 485.74C518.155 485.74 517.993 485.633 517.919 485.449C517.818 485.202 517.919 484.911 518.144 484.801L522.158 482.823C522.382 482.711 522.648 482.82 522.748 483.069C522.849 483.318 522.748 483.607 522.524 483.717L518.51 485.696C518.45 485.727 518.388 485.74 518.326 485.74Z" fill="#EAEAEA"/>
<path d="M544.479 500.252L498.959 500.107L498.951 502.977L544.472 503.122L544.479 500.252Z" fill="#141C34"/>
<path d="M473.789 477.841L473.851 501.192L428.332 501.338C428.32 496.888 431.053 492.994 434.97 491.884L446.481 488.621C447.381 488.366 448.201 487.847 448.854 487.118L453.263 477.728L473.789 477.841Z" fill="#353148"/>
<path d="M453.063 489.423C453.001 489.423 452.939 489.408 452.881 489.38L448.867 487.401C448.642 487.291 448.542 487 448.642 486.753C448.742 486.504 449.008 486.395 449.231 486.505L453.245 488.483C453.469 488.594 453.57 488.884 453.469 489.132C453.396 489.315 453.234 489.423 453.063 489.423Z" fill="#EAEAEA"/>
<path d="M454.477 485.74C454.415 485.74 454.353 485.726 454.295 485.697L450.281 483.719C450.056 483.609 449.956 483.318 450.056 483.07C450.156 482.821 450.421 482.714 450.645 482.824L454.659 484.802C454.883 484.912 454.984 485.203 454.883 485.451C454.811 485.633 454.647 485.74 454.477 485.74Z" fill="#EAEAEA"/>
<path d="M428.332 503.117L473.853 502.972L473.845 500.102L428.325 500.247L428.332 503.117Z" fill="#141C34"/>
<path d="M453.174 479.722C453.17 479.722 453.167 479.722 453.163 479.722C452.835 479.715 452.573 479.417 452.579 479.055L455.492 303.227C455.498 302.866 455.812 302.616 456.098 302.584C456.426 302.591 456.688 302.889 456.682 303.251L453.769 479.079C453.763 479.436 453.498 479.722 453.174 479.722Z" fill="#FDFDFD"/>
<path d="M462.605 480.334H462.601C462.272 480.331 462.008 480.035 462.01 479.673L462.565 400.916C462.567 400.557 462.834 400.266 463.16 400.266H463.165C463.493 400.269 463.758 400.565 463.755 400.927L463.201 479.684C463.198 480.043 462.932 480.334 462.605 480.334Z" fill="#FDFDFD"/>
<path d="M440.202 146.964L454.19 144.285C455.436 144.047 456.27 142.742 456.053 141.37L450.817 108.256C450.6 106.886 449.414 105.967 448.168 106.206L434.181 108.885C432.934 109.123 432.101 110.428 432.318 111.8L437.554 144.914C437.771 146.286 438.957 147.204 440.202 146.964Z" fill="white"/>
<path d="M456.005 135.446L455.999 134.941C455.981 133.287 454.749 131.963 453.246 131.982L450.031 132.024L452.436 131.993C453.811 131.975 454.913 130.734 454.896 129.221C454.876 127.347 453.515 125.821 451.813 125.781C449.875 125.735 447.286 125.866 444.869 126.609C440.198 128.044 439.122 126.902 439.122 126.902C439.122 126.902 438.153 126.804 436.738 121.091C435.322 115.377 428.321 116.466 430.234 120.109C432.147 123.753 430.713 127.366 430.713 127.366L429.838 129.687L429.552 130.446C428.832 132.358 428.648 134.448 428.998 136.454C428.254 141.74 427.462 150.547 427.462 150.547L445.237 152.126L445.169 149.414L447.638 149.383C449.464 149.359 450.927 147.711 450.906 145.701C450.9 145.116 450.463 144.647 449.931 144.653L449.02 144.665L451.4 144.635C453.076 144.613 454.42 143.1 454.4 141.255L454.395 140.871C454.381 139.511 453.367 138.421 452.131 138.437L448.85 138.479L453.367 138.42C454.84 138.399 456.021 137.068 456.005 135.446Z" fill="#FFA698"/>
<path d="M453.382 132.48H449.378C449.132 132.48 448.932 132.26 448.932 131.989C448.932 131.718 449.132 131.498 449.378 131.498H453.382C453.628 131.498 453.828 131.718 453.828 131.989C453.828 132.26 453.628 132.48 453.382 132.48Z" fill="#FF755F"/>
<path d="M453.017 138.977C453.011 138.977 453.005 138.977 452.999 138.976L448.998 138.803C448.751 138.792 448.56 138.564 448.569 138.293C448.577 138.022 448.788 137.791 449.033 137.821L453.034 137.994C453.281 138.005 453.472 138.233 453.463 138.504C453.453 138.77 453.255 138.977 453.017 138.977Z" fill="#FF755F"/>
<path d="M450.47 145.125C450.464 145.125 450.458 145.125 450.452 145.125L446.451 144.952C446.205 144.942 446.013 144.714 446.023 144.443C446.032 144.171 446.249 143.946 446.487 143.971L450.488 144.144C450.734 144.154 450.926 144.382 450.917 144.653C450.907 144.918 450.708 145.125 450.47 145.125Z" fill="#FF755F"/>
<path d="M513.356 283.464C513.356 283.464 509.152 286.74 508.535 291.018C507.918 295.295 510.809 302.106 510.809 302.106L513.356 283.464Z" fill="#FFA698"/>
<path opacity="0.57" d="M512.793 289.271L510.562 301.492C510.562 301.492 510.792 290.128 512.793 289.271Z" fill="#FF755F"/>
<path d="M503.405 308.625H500.585C500.387 308.625 500.204 308.122 500.025 307.599L500.027 350.582H503.408L503.405 308.625Z" fill="#323233"/>
<path d="M537.214 308.621L537.216 350.578H540.597L540.594 308.223C540.519 308.307 540.453 308.618 540.375 308.618L537.214 308.621Z" fill="#323233"/>
<path d="M555.648 496.906L488.296 497.603C484.551 497.642 481.487 494.332 481.451 490.211L480.318 358.199C480.282 354.077 483.29 350.705 487.035 350.666L554.389 349.969C558.134 349.93 561.198 353.24 561.234 357.361L562.367 489.373C562.4 493.494 559.393 496.868 555.648 496.906Z" fill="#F8E643"/>
<path opacity="0.49" d="M495.113 472.375C491.079 472.375 487.778 468.792 487.74 464.351L486.828 358.115L488.018 358.102L488.93 464.338C488.962 468.061 491.731 471.065 495.113 471.065C495.133 471.065 495.154 471.065 495.174 471.065L548.315 470.515C549.969 470.498 551.516 469.776 552.672 468.48C553.829 467.186 554.458 465.474 554.442 463.661L553.529 357.423L554.72 357.41L555.633 463.647C555.652 465.812 554.902 467.854 553.521 469.399C552.141 470.943 550.296 471.804 548.327 471.825L495.186 472.375C495.161 472.375 495.137 472.375 495.113 472.375Z" fill="#222222"/>
<path opacity="0.49" d="M553.316 498.296H489.366V494.925C489.366 491.744 491.717 489.158 494.606 489.158H548.075C550.965 489.158 553.315 491.746 553.315 494.925L553.316 498.296ZM490.556 496.986H552.126V494.925C552.126 492.467 550.309 490.468 548.076 490.468H494.607C492.374 490.468 490.557 492.467 490.557 494.925V496.986H490.556Z" fill="#222222"/>
<path d="M550.69 492.542C552.231 496.42 550.616 500.936 547.086 502.627C543.554 504.318 539.442 502.547 537.902 498.669C536.361 494.792 537.975 490.276 541.506 488.584C545.038 486.892 549.15 488.663 550.69 492.542Z" fill="#141C34"/>
<path opacity="0.27" d="M547.856 493.899C548.714 496.058 547.815 498.572 545.849 499.514C543.882 500.456 541.593 499.47 540.735 497.311C539.876 495.152 540.775 492.638 542.742 491.696C544.708 490.753 546.999 491.74 547.856 493.899Z" fill="#A2D5F2"/>
<path d="M506.208 492.542C507.748 496.42 506.135 500.936 502.604 502.627C499.072 504.318 494.96 502.547 493.419 498.669C491.879 494.792 493.493 490.276 497.024 488.584C500.556 486.892 504.668 488.663 506.208 492.542Z" fill="#141C34"/>
<path opacity="0.27" d="M503.375 493.899C504.233 496.058 503.334 498.572 501.368 499.514C499.401 500.456 497.112 499.47 496.254 497.311C495.395 495.152 496.294 492.638 498.261 491.696C500.227 490.753 502.516 491.74 503.375 493.899Z" fill="#A2D5F2"/>
<path opacity="0.49" d="M500.425 458.52H498.627C497.373 458.52 496.352 457.397 496.352 456.016V370.973C496.352 369.593 497.373 368.47 498.627 368.47H500.425C501.681 368.47 502.701 369.593 502.701 370.973V456.016C502.701 457.397 501.681 458.52 500.425 458.52ZM498.627 369.78C498.03 369.78 497.543 370.316 497.543 370.973V456.016C497.543 456.674 498.03 457.21 498.627 457.21H500.425C501.024 457.21 501.511 456.674 501.511 456.016V370.973C501.511 370.316 501.024 369.78 500.425 369.78H498.627Z" fill="#222222"/>
<path opacity="0.49" d="M541.309 458.52H539.511C538.256 458.52 537.236 457.397 537.236 456.016V370.973C537.236 369.593 538.258 368.47 539.511 368.47H541.309C542.565 368.47 543.585 369.593 543.585 370.973V456.016C543.585 457.397 542.565 458.52 541.309 458.52ZM539.511 369.78C538.914 369.78 538.427 370.316 538.427 370.973V456.016C538.427 456.674 538.914 457.21 539.511 457.21H541.309C541.907 457.21 542.394 456.674 542.394 456.016V370.973C542.394 370.316 541.907 369.78 541.309 369.78H539.511Z" fill="#222222"/>
<path opacity="0.49" d="M522.151 458.52H520.354C519.098 458.52 518.077 457.397 518.077 456.016V370.973C518.077 369.593 519.098 368.47 520.354 368.47H522.151C523.407 368.47 524.427 369.593 524.427 370.973V456.016C524.427 457.397 523.407 458.52 522.151 458.52ZM520.354 369.78C519.755 369.78 519.268 370.316 519.268 370.973V456.016C519.268 456.674 519.755 457.21 520.354 457.21H522.151C522.75 457.21 523.237 456.674 523.237 456.016V370.973C523.237 370.316 522.75 369.78 522.151 369.78H520.354Z" fill="#222222"/>
<path d="M503.407 309.434H503.858C504.881 309.434 505.71 308.524 505.71 307.4C505.71 306.269 506.553 305.344 507.583 305.344L533.382 305.343C534.404 305.343 535.234 306.254 535.234 307.378C535.234 308.508 536.077 309.433 537.106 309.433H537.215H540.377C540.454 309.433 540.521 309.395 540.596 309.385C541.511 309.26 542.229 308.437 542.229 307.399V302.368C542.231 302.355 542.234 302.342 542.236 302.329C542.607 299.91 540.866 297.743 538.789 297.743L502.155 297.746C500.077 297.746 498.337 299.914 498.708 302.331C498.711 302.344 498.712 302.357 498.715 302.371V307.379C498.715 308.292 499.274 309.043 500.026 309.31C500.206 309.374 500.389 309.436 500.587 309.436L503.407 309.434Z" fill="#141C34"/>
<path d="M519.152 308.859L518.712 308.879C517.274 308.942 516.061 307.71 516.004 306.128L515.881 302.74L515.973 305.274C516.025 306.723 515 307.944 513.685 308.003C512.054 308.075 510.66 306.717 510.541 304.927C510.405 302.888 510.391 300.155 510.917 297.574C511.934 292.584 513.428 281.292 513.428 281.292L515.751 273.12L536.709 277.54L530.854 299.364C530.924 301.288 529.564 302.91 527.815 302.988C527.305 303.01 526.876 302.574 526.856 302.013L526.821 301.053L526.913 303.559C526.977 305.326 525.727 306.814 524.122 306.885L523.788 306.9C522.605 306.952 521.607 305.938 521.559 304.636L521.433 301.178L521.606 305.937C521.663 307.488 520.564 308.796 519.152 308.859Z" fill="#FFA698"/>
<path opacity="0.57" d="M516.442 301.564C516.418 301.229 516.159 300.975 515.853 300.988C515.541 301.004 515.298 301.295 515.312 301.638L515.492 306.155C515.473 306.484 515.77 306.767 516.083 306.751C516.394 306.736 516.637 306.445 516.623 306.102L516.443 301.585C516.443 301.578 516.442 301.57 516.442 301.564Z" fill="#FF755F"/>
<path opacity="0.57" d="M522.27 305.828C522.27 305.824 522.27 305.821 522.269 305.819L521.782 300.133C521.752 299.79 521.476 299.54 521.166 299.571C520.854 299.602 520.661 299.916 520.655 300.25L521.142 305.935C521.172 306.279 521.448 306.529 521.758 306.497C522.067 306.466 522.294 306.167 522.27 305.828Z" fill="#FF755F"/>
<path opacity="0.57" d="M527.136 298.416C527.112 298.081 526.852 297.827 526.546 297.842C526.235 297.857 525.992 298.148 526.006 298.493L526.176 302.739C526.169 303.077 526.455 303.347 526.767 303.334C527.079 303.318 527.321 303.027 527.307 302.682L527.137 298.437C527.137 298.429 527.136 298.422 527.136 298.416Z" fill="#FF755F"/>
<path d="M492.806 80.924C490.866 79.1004 488.223 77.7798 484.665 77.2571C484.53 76.9755 484.389 76.699 484.235 76.4344C482.52 73.4789 479.634 71.5859 476.488 71.0317C466.67 69.2998 463.752 76.4423 456.988 81.0681C444.114 89.873 456.752 106.072 457.47 102.309C457.685 101.18 458.682 99.1286 459.504 98.2443C459.812 97.9116 460.146 97.6155 460.49 97.3365C461.839 98.171 463.406 98.6151 465.067 98.5024C467.27 98.3531 469.211 97.2683 470.613 95.6295C478.59 96.1076 483.124 94.5054 485.661 92.7971C486.438 93.7233 487.042 94.8303 487.361 96.0565C487.988 98.4657 487.692 101.102 487.735 103.576C487.755 104.717 481.657 112.415 482.23 116.879C482.854 121.727 486.93 125.101 491.336 124.414C495.742 123.728 498.807 119.242 498.183 114.393C497.93 112.418 497.095 110.695 495.906 109.384L499.493 94.791C501.308 88.7582 498.058 82.5393 492.806 80.924Z" fill="#423E49"/>
<path d="M492.657 108.008L491.806 107.994C491.806 107.994 489.267 108.104 488.726 110.915C488.646 111.333 487.775 107.4 487.766 107C487.74 105.858 487.755 104.716 487.735 103.575C487.692 101.1 487.987 98.4645 487.361 96.0552C486.671 93.4024 484.69 91.263 482.353 90.4495C482.207 90.3984 482.027 90.3552 481.824 90.3185C480.894 92.8548 478.71 94.7151 476.065 94.8945C474.536 94.998 473.099 94.5185 471.921 93.6382C470.602 96.3631 468.074 98.2994 465.067 98.5024C461.975 98.7121 459.18 97.0378 457.586 94.3849C457.244 95.7028 457.035 97.0836 457.015 98.5195L456.999 99.557C456.999 99.5584 456.999 99.5597 456.999 99.5597L456.755 116.45L456.639 124.502V124.503L456.623 125.572C456.52 132.771 460.511 138.979 466.225 141.546L466.037 150.284C465.888 157.195 470.857 162.929 477.135 163.093L480.147 163.171C486.427 163.335 491.637 157.867 491.786 150.956L492.418 121.668L492.461 121.67C495.488 121.722 497.981 119.065 498.028 115.734L498.052 114.135C498.099 110.805 495.684 108.061 492.657 108.008Z" fill="#FFA698"/>
<path opacity="0.46" d="M488.909 125.067C488.781 133.862 482.2 140.88 474.206 140.74L470.88 140.683C462.887 140.542 456.512 133.299 456.638 124.503L456.622 125.572C456.514 133.099 460.878 139.549 467.012 141.879C466.957 145.113 469.65 148.13 473.375 148.819C477.393 149.563 481.085 147.318 481.622 143.806C481.727 143.122 481.701 142.441 481.566 141.78C487.309 139.393 491.44 133.349 491.543 126.183L491.609 121.653L488.959 121.607L488.909 125.067Z" fill="#FF755F"/>
<path d="M493.801 117.555C493.716 117.555 493.628 117.534 493.546 117.492L490.942 116.129L492.815 111.932C492.96 111.607 493.318 111.475 493.612 111.632C493.907 111.792 494.029 112.183 493.885 112.508L492.542 115.515L494.056 116.308C494.353 116.463 494.48 116.854 494.337 117.181C494.237 117.417 494.023 117.555 493.801 117.555Z" fill="#FF755F"/>
<path d="M468.986 134.147C468.839 134.147 468.693 134.088 468.579 133.97C468.524 133.913 467.278 132.675 465.825 133.518C465.538 133.686 465.175 133.565 465.021 133.244C464.867 132.924 464.979 132.529 465.269 132.358C467.488 131.072 469.318 132.935 469.395 133.016C469.633 133.264 469.644 133.679 469.419 133.942C469.301 134.079 469.144 134.147 468.986 134.147Z" fill="#FF755F"/>
<mask id="mask4_2_581" style="mask-type:luminance" maskUnits="userSpaceOnUse" x="458" y="108" width="9" height="6">
<path d="M458.201 112.27C458.364 110.921 459.024 108.917 461.465 108.5C461.867 108.431 462.241 108.435 462.594 108.486C464.224 108.722 465.33 110.093 465.99 111.265C466.478 112.132 466.028 113.287 465.117 113.482C462.628 114.014 460.143 113.811 458.93 113.651C458.471 113.59 458.131 113.146 458.164 112.639C458.172 112.524 458.185 112.4 458.201 112.27Z" fill="white"/>
</mask>
<g mask="url(#mask4_2_581)">
<path d="M458.201 112.27C458.364 110.921 459.024 108.917 461.465 108.5C461.867 108.431 462.241 108.435 462.594 108.486C464.224 108.722 465.33 110.093 465.99 111.265C466.478 112.132 466.028 113.287 465.117 113.482C462.628 114.014 460.143 113.811 458.93 113.651C458.471 113.59 458.131 113.146 458.164 112.639C458.172 112.524 458.185 112.4 458.201 112.27Z" fill="white"/>
</g>
<mask id="mask5_2_581" style="mask-type:luminance" maskUnits="userSpaceOnUse" x="458" y="108" width="9" height="6">
<path d="M458.201 112.27C458.364 110.921 459.024 108.917 461.465 108.5C461.867 108.431 462.241 108.435 462.594 108.486C464.224 108.722 465.33 110.093 465.99 111.265C466.478 112.132 466.028 113.287 465.117 113.482C462.628 114.014 460.143 113.811 458.93 113.651C458.471 113.59 458.131 113.146 458.164 112.639C458.172 112.524 458.185 112.4 458.201 112.27Z" fill="white"/>
</mask>
<g mask="url(#mask5_2_581)">
<path d="M461.139 115.326C462.587 115.326 463.76 114.152 463.76 112.704C463.76 111.255 462.587 110.081 461.139 110.081C459.691 110.081 458.518 111.255 458.518 112.704C458.518 114.152 459.691 115.326 461.139 115.326Z" fill="#423E49"/>
</g>
<path d="M471.069 124.323C471.049 124.323 471.029 124.321 471.008 124.319C470.764 124.281 470.593 124.034 470.628 123.766C470.641 123.662 470.964 121.216 472.881 119.682C474.256 118.583 476.072 118.246 478.279 118.683C478.521 118.731 478.682 118.987 478.639 119.254C478.596 119.52 478.371 119.698 478.121 119.651C476.168 119.266 474.584 119.542 473.416 120.471C471.806 121.751 471.516 123.88 471.512 123.901C471.48 124.144 471.29 124.323 471.069 124.323Z" fill="#FF755F"/>
<mask id="mask6_2_581" style="mask-type:luminance" maskUnits="userSpaceOnUse" x="470" y="106" width="11" height="7">
<path d="M470.717 111.044C470.917 109.394 471.722 106.946 474.706 106.436C475.198 106.352 475.655 106.358 476.086 106.421C478.079 106.709 479.431 108.384 480.237 109.816C480.833 110.876 480.283 112.287 479.17 112.525C476.127 113.175 473.091 112.926 471.609 112.732C471.048 112.659 470.632 112.115 470.673 111.497C470.682 111.356 470.698 111.202 470.717 111.044Z" fill="white"/>
</mask>
<g mask="url(#mask6_2_581)">
<path d="M470.717 111.044C470.917 109.394 471.722 106.946 474.706 106.436C475.198 106.352 475.655 106.358 476.086 106.421C478.079 106.709 479.431 108.384 480.237 109.816C480.833 110.876 480.283 112.287 479.17 112.525C476.127 113.175 473.091 112.926 471.609 112.732C471.048 112.659 470.632 112.115 470.673 111.497C470.682 111.356 470.698 111.202 470.717 111.044Z" fill="white"/>
</g>
<mask id="mask7_2_581" style="mask-type:luminance" maskUnits="userSpaceOnUse" x="470" y="106" width="11" height="7">
<path d="M470.717 111.044C470.917 109.394 471.722 106.946 474.706 106.436C475.198 106.352 475.655 106.358 476.086 106.421C478.079 106.709 479.431 108.384 480.237 109.816C480.833 110.876 480.283 112.287 479.17 112.525C476.127 113.175 473.091 112.926 471.609 112.732C471.048 112.659 470.632 112.115 470.673 111.497C470.682 111.356 470.698 111.202 470.717 111.044Z" fill="white"/>
</mask>
<g mask="url(#mask7_2_581)">
<path d="M471.104 111.574C471.104 113.344 472.538 114.779 474.307 114.779C476.076 114.779 477.511 113.344 477.511 111.574C477.511 109.804 476.076 108.37 474.307 108.37C472.538 108.37 471.104 109.804 471.104 111.574Z" fill="#423E49"/>
</g>
<path d="M470.636 103.913C471.243 103.576 472.055 103.609 472.841 103.591C473.632 103.591 474.427 103.57 475.118 103.524C475.81 103.479 476.602 103.397 477.388 103.293C478.171 103.21 478.977 103.071 479.608 103.327C480.217 103.565 480.501 104.34 479.85 105.359C479.24 106.35 477.57 107.492 475.281 107.648C472.994 107.791 471.241 106.872 470.555 105.966C469.83 105.037 470.05 104.229 470.636 103.913Z" fill="#423E49"/>
<path d="M466.393 104.651C465.868 104.332 465.152 104.334 464.459 104.29C463.761 104.263 463.061 104.217 462.454 104.153C461.846 104.089 461.15 103.989 460.459 103.871C459.772 103.77 459.065 103.621 458.502 103.824C457.959 104.013 457.687 104.686 458.231 105.606C458.739 106.499 460.178 107.564 462.191 107.78C464.202 107.986 465.773 107.237 466.403 106.462C467.071 105.668 466.9 104.949 466.393 104.651Z" fill="#423E49"/>
<path d="M469.297 119.15L466.868 118.949C465.115 118.803 463.814 116.926 463.964 114.756L463.983 114.479C464.052 113.483 464.76 112.73 465.565 112.797C466.948 112.912 468.165 111.618 468.282 109.907L468.546 105.814" fill="#FFA698"/>
<path d="M469.297 119.642C469.286 119.642 469.274 119.642 469.263 119.64L466.835 119.439C464.839 119.272 463.35 117.155 463.518 114.72L463.539 114.441C463.583 113.8 463.85 113.2 464.273 112.801C464.65 112.443 465.129 112.27 465.598 112.307C466.125 112.347 466.667 112.13 467.088 111.683C467.522 111.221 467.788 110.577 467.837 109.87L468.1 105.779C468.118 105.509 468.335 105.314 468.576 105.323C468.823 105.342 469.007 105.577 468.991 105.847L468.728 109.941C468.662 110.89 468.301 111.76 467.707 112.389C467.102 113.034 466.335 113.355 465.53 113.287C465.291 113.266 465.052 113.359 464.855 113.545C464.61 113.777 464.454 114.13 464.429 114.515L464.409 114.794C464.279 116.689 465.397 118.333 466.903 118.457L469.331 118.659C469.576 118.68 469.761 118.916 469.743 119.186C469.724 119.445 469.528 119.642 469.297 119.642Z" fill="#FF755F"/>
<path d="M547.593 221.269L522.293 163.869L522.258 163.924C518.917 157.182 512.779 152.298 505.403 151.323L493.749 150.499L474.698 155.908L466.358 148.564L451.595 154.336L451.668 151.408C451.698 150.194 450.935 149.13 449.855 148.881L427.806 143.79C427.23 143.656 426.675 144.089 426.606 144.732C426.12 149.198 425.492 155.923 425.036 159.922C424.253 166.786 423.469 173.648 422.686 180.511C421.734 188.858 419.278 203.032 422.369 211.22C426.873 223.151 435.677 229.424 442.635 225.892C445.354 224.512 447.5 218.386 448.9 211.964L448.857 279.49L512.66 279.441L512.321 281.027C511.839 283.287 512.93 285.595 514.888 286.457L529.847 293.039C532.139 294.048 534.716 292.633 535.363 290.011L548.833 235.424C550.001 230.697 549.559 225.664 547.593 221.269Z" fill="#F8E643"/>
<path d="M489.579 155.341H464.199V279.657H489.579V155.341Z" fill="white"/>
<path d="M512.533 279.931C512.487 279.931 512.441 279.925 512.394 279.912C512.074 279.828 511.877 279.475 511.954 279.122L521.107 237.022L501.312 189.037C501.176 188.708 501.308 188.319 501.607 188.17C501.908 188.022 502.259 188.166 502.395 188.495L522.359 236.89L513.11 279.426C513.047 279.729 512.803 279.931 512.533 279.931Z" fill="#F95A4E"/>
<path d="M447.122 158.695C446.812 158.695 446.506 158.617 446.222 158.464C445.73 158.199 445.36 157.74 445.182 157.168C445.005 156.599 445.04 155.985 445.28 155.444C445.519 154.903 445.938 154.497 446.456 154.301C446.975 154.105 447.531 154.142 448.023 154.407C448.516 154.671 448.885 155.131 449.062 155.702C449.239 156.272 449.205 156.884 448.964 157.425C448.725 157.968 448.307 158.374 447.789 158.57C447.572 158.654 447.345 158.695 447.122 158.695ZM447.124 155.488C447.03 155.488 446.936 155.505 446.844 155.54C446.625 155.623 446.451 155.793 446.35 156.019C446.249 156.247 446.233 156.506 446.31 156.744C446.385 156.984 446.538 157.176 446.745 157.288C446.951 157.399 447.185 157.416 447.404 157.332C447.622 157.25 447.795 157.081 447.897 156.853C447.998 156.625 448.013 156.367 447.937 156.128C447.862 155.888 447.708 155.696 447.501 155.585C447.382 155.52 447.252 155.488 447.124 155.488Z" fill="#F95A4E"/>
<path d="M448.943 166.161C448.914 166.161 448.885 166.159 448.856 166.154L433.297 163.647C432.972 163.594 432.746 163.261 432.794 162.904C432.842 162.545 433.15 162.293 433.469 162.351L449.027 164.858C449.352 164.911 449.579 165.244 449.531 165.601C449.487 165.926 449.233 166.161 448.943 166.161Z" fill="#F95A4E"/>
<path d="M452.65 190.813C452.326 190.813 452.062 190.529 452.055 190.173L451.304 151.411C451.289 150.665 451.061 150.158 449.964 149.926L446.897 149.43C446.572 149.377 446.346 149.045 446.393 148.687C446.442 148.329 446.759 148.082 447.068 148.134L450.163 148.635C451.689 148.957 452.465 149.881 452.494 151.383L453.245 190.145C453.252 190.507 452.992 190.807 452.663 190.815C452.658 190.813 452.654 190.813 452.65 190.813Z" fill="#F95A4E"/>
<path d="M532.383 287.867C531.252 287.867 530.332 286.854 530.332 285.608C530.332 284.364 531.252 283.351 532.383 283.351C533.514 283.351 534.435 284.362 534.435 285.608C534.434 286.854 533.514 287.867 532.383 287.867ZM532.383 284.662C531.909 284.662 531.522 285.087 531.522 285.61C531.522 286.132 531.908 286.558 532.383 286.558C532.858 286.558 533.245 286.134 533.245 285.61C533.244 285.087 532.858 284.662 532.383 284.662Z" fill="#F95A4E"/>
<path d="M537.636 278.996C537.575 278.996 537.515 278.986 537.455 278.966L522.476 273.7C522.163 273.59 521.99 273.222 522.09 272.876C522.192 272.531 522.525 272.345 522.839 272.451L537.818 277.718C538.131 277.828 538.304 278.196 538.204 278.542C538.122 278.818 537.888 278.996 537.636 278.996Z" fill="#F95A4E"/>
<path d="M469.433 164.304L474.803 156.016L474.699 155.907L475.077 155.592L475.09 155.573L465.793 143.25C465.002 142.201 463.65 142.847 463.489 144.353L462.565 152.908L467.331 164.059C467.704 164.931 468.514 165.148 469.117 164.654C469.229 164.561 469.338 164.451 469.433 164.304Z" fill="#F8F8EE"/>
<path d="M474.699 155.908L474.803 156.017L482.765 164.196L483.633 165.088C484.479 165.958 485.943 165.918 486.709 165.005L496.311 153.549L492.195 143.085C491.955 142.473 491.137 142.273 490.623 142.7L475.078 155.595L474.699 155.908Z" fill="#F8F8EE"/>
<path d="M479.231 173.196C479.226 173.196 479.22 173.196 479.215 173.196L472.245 172.995C471.917 172.986 471.657 172.685 471.666 172.323C471.674 171.963 471.992 171.676 472.276 171.685L479.245 171.886C479.574 171.895 479.833 172.196 479.825 172.558C479.818 172.914 479.552 173.196 479.231 173.196Z" fill="#FDFDFD"/>
<path d="M626.345 585.657C627.577 588.056 626.808 590.909 624.627 592.028C622.446 593.147 619.68 592.109 618.449 589.709C617.217 587.309 617.987 584.457 620.167 583.338C622.348 582.219 625.114 583.257 626.345 585.657Z" fill="#F8E643"/>
<path d="M668.888 404.281C669.504 405.481 669.12 406.907 668.029 407.467C666.939 408.026 665.555 407.507 664.94 406.308C664.324 405.107 664.709 403.681 665.799 403.122C666.89 402.562 668.272 403.081 668.888 404.281Z" fill="#F8E643"/>
<path d="M576.665 553.853C577.281 555.053 576.896 556.48 575.806 557.039C574.716 557.598 573.332 557.079 572.717 555.88C572.101 554.679 572.486 553.253 573.576 552.694C574.666 552.135 576.049 552.653 576.665 553.853Z" fill="#555555"/>
<path d="M570.767 419.638C571.382 420.837 570.998 422.264 569.908 422.823C568.817 423.383 567.434 422.863 566.819 421.664C566.203 420.463 566.588 419.038 567.678 418.478C568.768 417.919 570.151 418.437 570.767 419.638Z" fill="#555555"/>
<path d="M664.242 566.552C664.55 567.153 664.357 567.865 663.812 568.145C663.267 568.425 662.575 568.166 662.267 567.565C661.959 566.965 662.152 566.252 662.697 565.973C663.242 565.693 663.934 565.952 664.242 566.552Z" fill="#555555"/>
<path d="M634.482 377.333C635.981 376.564 636.51 374.603 635.663 372.953C634.816 371.303 632.915 370.589 631.416 371.358C629.916 372.128 629.388 374.089 630.234 375.739C631.081 377.389 632.982 378.102 634.482 377.333Z" fill="#F8E643"/>
</svg>
